<?xml version="1.0" standalone="no"?>
<!DOCTYPE svg PUBLIC "-//W3C//DTD SVG 20010904//EN"
 "http://www.w3.org/TR/2001/REC-SVG-20010904/DTD/svg10.dtd">
<svg version="1.0" xmlns="http://www.w3.org/2000/svg"
 width="2000.000000pt" height="2000.000000pt" viewBox="0 0 2000.000000 2000.000000"
 preserveAspectRatio="xMidYMid meet">

<g transform="translate(0.000000,2000.000000) scale(0.100000,-0.100000)"
fill="#000000" stroke="none">
<path d="M7705 17739 c-266 -35 -506 -147 -604 -284 l-33 -46 -21 40 c-132
246 -489 338 -742 192 -154 -88 -269 -257 -309 -453 -18 -85 -21 -198 -7 -198
6 0 13 21 16 48 46 332 209 554 452 617 224 58 470 -61 572 -277 40 -86 67
-105 56 -38 -6 38 -4 42 52 101 135 144 351 233 625 258 279 26 537 -44 730
-197 173 -138 263 -310 275 -529 5 -93 8 -103 25 -103 11 0 22 8 25 19 2 10
25 28 50 41 59 29 107 23 147 -21 25 -29 28 -37 24 -85 -3 -30 -7 -56 -9 -58
-2 -2 -119 1 -259 7 -181 7 -487 7 -1050 -2 -970 -14 -2570 -15 -2570 -1 0 5
9 34 21 65 23 61 89 134 148 164 93 47 141 56 291 55 137 0 150 -2 235 -32
113 -41 120 -42 120 -18 0 43 -201 96 -357 96 -268 -1 -445 -112 -485 -304 -6
-33 -10 -62 -8 -64 2 -2 334 -6 737 -8 403 -2 1127 -9 1608 -15 1032 -14 1614
-9 1637 14 16 16 10 37 -11 37 -9 0 -11 16 -8 59 4 49 0 66 -18 96 -42 68
-135 87 -204 40 l-36 -24 0 57 c-1 202 -116 415 -301 557 -213 165 -502 233
-814 194z"/>
<path d="M11089 15945 c-488 -67 -848 -289 -1005 -619 -27 -57 -41 -75 -53
-72 -9 3 -43 13 -76 23 -43 12 -94 18 -180 18 -109 0 -125 -2 -176 -26 -101
-48 -189 -152 -189 -224 0 -30 -5 -31 -65 -4 -68 30 -208 25 -280 -11 -67 -32
-131 -94 -161 -152 -30 -59 -31 -82 -5 -73 11 3 336 -1 723 -10 1172 -25 1684
-34 2583 -46 528 -7 865 -15 872 -21 22 -18 33 2 33 58 0 66 -20 118 -63 162
-54 57 -102 76 -188 76 -67 0 -86 -5 -154 -37 -43 -21 -79 -36 -80 -35 -2 2
-19 60 -39 131 -115 403 -265 615 -529 746 -194 97 -376 132 -678 130 -107 -1
-237 -7 -290 -14z m602 -51 c197 -33 387 -114 513 -219 59 -50 145 -157 191
-240 45 -80 105 -239 150 -396 19 -68 39 -126 45 -129 5 -3 45 11 88 33 166
82 310 51 376 -80 9 -18 16 -40 16 -50 0 -17 -16 -18 -307 -11 -475 10 -2479
28 -3204 28 -357 0 -649 3 -649 8 0 22 83 111 129 139 101 60 212 67 318 18
31 -14 57 -24 58 -23 1 2 10 34 20 73 47 178 229 250 495 195 58 -12 109 -25
114 -30 14 -13 36 0 36 22 0 33 57 130 127 218 206 258 558 421 988 460 132
12 379 4 496 -16z"/>
<path d="M7994 14221 c-107 -27 -227 -141 -346 -326 -40 -63 -133 -206 -206
-317 -572 -869 -921 -1453 -1401 -2340 l-37 -68 -99 183 c-54 100 -216 398
-360 662 -144 264 -287 532 -317 596 -61 124 -94 171 -139 194 -69 36 -131 2
-190 -103 -18 -31 -91 -158 -162 -281 l-130 -223 -69 75 c-211 232 -490 381
-782 417 -417 53 -822 -152 -997 -505 -42 -86 -79 -214 -79 -277 0 -21 -3 -38
-7 -38 -3 0 -31 12 -62 28 -51 24 -66 27 -166 27 -100 0 -115 -2 -167 -28 -75
-37 -141 -104 -176 -178 -20 -43 -31 -57 -42 -53 -31 13 -117 16 -157 5 -91
-25 -173 -120 -188 -218 -11 -75 -6 -80 78 -72 116 12 2244 55 2328 47 l35 -3
-390 -662 c-365 -620 -391 -662 -420 -667 -71 -12 -903 -167 -921 -171 -37 -8
-44 -51 -56 -323 -8 -193 -8 -359 0 -625 6 -199 16 -504 21 -677 5 -173 12
-547 15 -830 7 -751 17 -1197 26 -1211 6 -11 168 -24 334 -28 30 -1 29 -1 -13
-22 -91 -45 -160 -142 -197 -274 -22 -82 -31 -314 -16 -444 14 -121 16 -127
42 -134 16 -4 19 -14 19 -59 0 -214 67 -393 173 -466 84 -59 130 -65 457 -65
170 0 236 18 485 129 6 2 18 -8 27 -23 35 -59 123 -134 203 -174 103 -50 203
-66 332 -50 48 6 169 11 268 11 253 0 375 20 504 82 162 77 272 267 297 512 6
61 8 64 44 80 51 22 60 52 60 191 0 191 -68 395 -185 554 -25 34 -45 64 -43
65 2 1 69 0 150 -2 l147 -4 -2 -196 c-3 -307 3 -422 26 -455 48 -70 138 -110
292 -126 381 -41 585 -55 830 -55 143 -1 279 2 303 7 l42 7 1 -152 c1 -84 4
-211 8 -283 l6 -130 35 -3 c38 -4 161 25 171 41 4 5 10 -8 13 -29 19 -97 110
-273 179 -345 74 -77 163 -132 267 -164 71 -22 401 -32 524 -16 212 28 367 94
513 218 l62 52 11 -34 c20 -61 104 -178 173 -241 165 -152 346 -200 782 -211
179 -4 257 -2 351 11 221 29 396 84 546 173 l78 45 49 -36 c27 -20 78 -50 113
-65 115 -52 189 -61 522 -64 l301 -2 99 28 c123 34 241 95 314 161 55 51 116
135 123 170 3 12 17 -13 38 -64 18 -45 60 -121 92 -169 154 -231 341 -364 573
-408 125 -24 603 -13 739 16 277 60 459 179 540 349 l29 63 87 -6 c47 -4 228
-14 401 -23 l315 -17 5 -30 c3 -16 12 -31 20 -32 8 -1 83 -14 165 -30 127 -23
176 -27 320 -27 l170 0 350 72 c546 111 1154 213 1380 232 149 12 198 32 225
93 37 84 43 171 37 597 -3 245 -12 480 -22 595 -17 205 -50 483 -57 490 -2 3
-47 17 -100 31 l-95 27 -7 81 c-3 45 -6 106 -6 136 l0 55 47 3 c56 3 86 21
110 65 16 28 18 61 18 257 0 289 -10 321 -106 338 -50 9 -50 9 -25 107 20 76
20 202 1 327 -10 68 -11 106 -5 124 15 40 12 101 -9 152 -10 26 -26 93 -35
150 -10 63 -41 179 -80 300 -36 108 -87 274 -115 367 -28 94 -69 224 -91 290
-22 65 -40 120 -40 122 0 2 24 3 54 3 l53 0 114 -190 c63 -104 117 -190 120
-190 3 0 11 23 18 52 l12 52 -96 157 c-52 86 -95 161 -95 166 0 6 8 21 19 34
90 117 38 361 -136 628 -78 120 -141 183 -216 215 -34 15 -68 30 -75 34 -8 4
-33 59 -57 123 -82 223 -181 380 -301 480 -62 52 -183 115 -286 149 -65 22
-67 24 -126 109 -32 47 -86 129 -118 181 -244 397 -422 528 -594 434 -79 -43
-203 -186 -311 -359 -30 -47 -46 -64 -58 -61 -34 11 -262 46 -401 62 -99 12
-226 18 -403 18 l-257 1 -95 175 c-53 96 -246 477 -430 845 -184 369 -369 735
-410 815 -42 80 -115 221 -163 314 -149 291 -299 498 -396 548 -54 28 -128 28
-181 0 -91 -47 -177 -162 -305 -407 -62 -119 -521 -957 -814 -1487 l-87 -158
-37 30 c-80 64 -184 75 -275 29 -111 -56 -176 -123 -468 -488 -68 -85 -129
-156 -135 -158 -7 -2 -53 74 -104 169 -51 95 -110 205 -130 243 -21 39 -84
155 -139 260 -107 200 -141 246 -206 276 -97 45 -174 3 -295 -160 l-54 -73
-22 49 c-12 26 -128 282 -259 568 -130 286 -327 718 -437 960 -235 517 -239
525 -288 590 -61 82 -171 128 -256 106z m139 -85 c73 -30 137 -127 216 -323
22 -54 143 -327 270 -608 127 -280 229 -516 226 -522 -12 -32 -114 10 -145 59
-21 33 -22 56 -8 166 4 33 -12 59 -31 48 -5 -3 -22 -30 -39 -59 -60 -107 -156
-167 -278 -175 -214 -14 -392 140 -461 398 -24 91 -24 337 1 371 22 31 20 49
-4 49 -12 0 -24 -10 -30 -24 -5 -13 -24 -36 -42 -50 -86 -65 -196 -78 -284
-33 -85 43 -86 37 12 198 170 280 303 438 413 492 62 30 132 35 184 13z m4354
-287 c38 -14 97 -82 120 -137 12 -28 21 -52 19 -52 -2 0 -20 26 -41 58 -42 64
-74 102 -87 102 -17 0 -7 -19 41 -79 27 -34 66 -95 88 -136 21 -41 43 -75 48
-75 12 0 41 -49 187 -310 131 -234 352 -669 344 -677 -3 -3 -27 2 -53 12 -221
83 -388 247 -459 453 -17 48 -44 71 -44 38 0 -8 -23 -26 -52 -40 -92 -46 -195
-31 -266 37 -44 42 -57 68 -78 155 -15 61 -20 72 -39 72 -16 0 -25 -11 -39
-52 -81 -230 -236 -443 -427 -588 -79 -59 -199 -134 -205 -127 -2 1 96 183
217 402 121 220 257 468 301 550 196 364 284 446 425 394z m-5007 -428 c80
-58 206 -65 301 -19 l47 24 0 -130 c1 -220 52 -365 172 -487 176 -179 429
-196 597 -41 44 41 53 42 53 9 0 -31 38 -84 76 -108 20 -12 61 -25 92 -28 l56
-6 168 -370 c93 -203 167 -374 166 -380 -4 -12 -191 -328 -374 -629 l-133
-219 -443 -74 c-549 -91 -1594 -268 -1908 -323 -874 -154 -1640 -291 -2175
-390 -181 -33 -415 -76 -519 -96 -104 -19 -193 -33 -196 -32 -4 2 124 226 284
499 l290 497 87 51 c247 144 456 344 641 614 12 17 17 15 62 -28 57 -55 99
-75 158 -75 54 0 100 31 132 90 22 41 32 70 51 154 l6 29 22 -21 c68 -64 204
-82 289 -39 l46 23 207 -380 c114 -210 213 -387 220 -395 9 -10 21 -11 40 -4
22 7 48 44 122 173 151 262 426 728 551 935 313 516 752 1205 767 1205 3 0 23
-13 45 -29z m4810 -384 c50 -60 110 -89 194 -95 69 -4 108 6 177 45 3 2 13
-20 22 -49 46 -145 190 -312 334 -386 46 -24 115 -51 155 -61 l73 -19 295
-588 c162 -324 310 -615 329 -647 18 -32 31 -60 29 -63 -3 -3 -90 -13 -194
-24 -104 -11 -282 -33 -394 -49 -228 -33 -1103 -164 -1220 -182 l-75 -11 -285
75 c-347 93 -448 117 -707 170 l-202 42 158 285 c87 157 242 439 345 628 129
235 193 342 204 342 25 0 156 74 245 138 97 70 227 204 295 304 51 75 132 229
147 278 7 21 10 17 26 -35 10 -33 32 -77 49 -98z m-7180 -332 c10 -9 45 -71
78 -138 33 -67 119 -230 191 -362 l131 -240 -27 -22 c-74 -60 -221 -45 -291
30 -16 17 -22 32 -18 45 4 11 3 23 -3 26 -25 16 -38 -10 -59 -122 -26 -137
-51 -184 -108 -202 -59 -20 -104 0 -178 76 l-63 65 -28 -43 c-77 -117 -229
-288 -364 -411 -91 -83 -289 -233 -297 -225 -2 3 164 290 369 639 206 349 393
672 418 719 44 86 107 165 144 181 27 12 84 3 105 -16z m-1314 -70 c276 -48
524 -190 722 -413 l63 -71 -189 -323 -189 -323 -114 -2 c-779 -14 -1828 -60
-2276 -99 -71 -7 -73 -6 -73 16 0 81 79 188 155 209 56 15 125 14 159 -4 27
-15 66 -20 66 -10 0 3 -5 13 -11 23 -16 25 9 70 75 140 129 137 319 156 472
47 30 -22 52 -31 58 -25 6 6 5 14 -2 23 -16 18 6 143 41 245 139 398 591 644
1043 567z m5827 -515 c13 -11 28 -32 31 -46 4 -15 20 -43 35 -63 15 -20 99
-173 186 -340 120 -232 155 -308 148 -320 -6 -9 -35 -29 -66 -45 -130 -67
-268 -13 -308 122 -12 42 -22 51 -34 32 -5 -8 -11 -7 -21 1 -20 16 -29 5 -48
-60 -22 -74 -61 -138 -96 -156 -75 -39 -160 2 -160 77 0 30 -3 39 -14 35 -7
-3 -19 0 -25 6 -6 6 -12 9 -14 6 -2 -2 -22 -37 -46 -77 -24 -41 -71 -104 -106
-141 l-64 -67 -130 -20 -130 -20 11 21 c23 42 277 450 449 720 155 243 184
283 221 305 92 53 141 62 181 30z m1383 -311 c23 -11 47 -25 52 -32 8 -9 -17
-63 -85 -187 -53 -96 -98 -177 -100 -180 -3 -3 -12 5 -20 18 -15 21 -43 31
-43 13 0 -18 -85 -103 -124 -124 -83 -43 -210 -23 -273 45 l-22 23 51 65 c253
326 417 431 564 359z m4600 -360 c27 -7 59 -25 82 -48 47 -46 412 -561 397
-561 -4 0 -133 34 -288 75 -155 41 -307 80 -337 88 l-55 14 1 51 c2 65 -15 69
-48 10 -13 -23 -27 -42 -33 -41 -5 1 -58 12 -117 24 -124 25 -121 12 -27 140
71 96 155 181 202 206 39 20 135 52 160 52 10 1 38 -4 63 -10z m-5983 -47 c10
-47 68 -114 126 -144 42 -22 67 -28 118 -28 66 0 101 12 158 55 l31 23 21 -39
21 -38 -42 -5 c-22 -3 -93 -10 -156 -16 -63 -7 -268 -34 -455 -61 -187 -27
-342 -49 -343 -49 -2 0 19 28 46 63 27 34 64 84 81 111 20 33 31 43 31 30 0
-32 36 -80 73 -97 65 -31 135 -18 184 35 26 28 70 121 79 165 7 38 19 36 27
-5z m1183 -113 c-33 -62 -49 -83 -63 -82 -107 14 -247 23 -344 23 -65 0 -119
3 -119 6 0 4 17 27 38 52 20 25 42 53 48 61 10 13 18 9 55 -22 102 -88 250
-86 352 3 25 23 49 51 53 63 7 22 7 22 16 1 7 -16 0 -39 -36 -105z m-426 -444
c0 -184 -3 -335 -7 -335 -15 0 -538 -50 -738 -70 -441 -45 -1049 -117 -2035
-240 -569 -71 -1595 -199 -2280 -285 -685 -85 -1612 -202 -2060 -259 -448 -58
-816 -104 -817 -102 -2 2 -8 57 -13 122 -5 66 -12 136 -15 157 -5 35 -4 37 21
37 14 0 502 88 1083 195 2723 501 4373 789 5711 994 590 91 779 112 1078 119
l72 2 0 -335z m270 315 c150 -16 313 -46 625 -116 559 -125 663 -151 630 -157
-16 -4 -217 -38 -445 -76 -498 -84 -559 -95 -570 -107 -10 -10 -25 -124 -35
-257 -6 -77 -9 -88 -23 -82 -31 12 -277 82 -350 100 l-73 17 5 227 c2 124 5
279 5 344 l1 117 68 0 c37 0 110 -5 162 -10z m3485 -50 c3 -5 2 -10 -4 -10 -5
0 -13 5 -16 10 -3 6 -2 10 4 10 5 0 13 -4 16 -10z m-168 -22 c-3 -8 -6 -5 -6
6 -1 11 2 17 5 13 3 -3 4 -12 1 -19z m-87 2 c-8 -5 -19 -10 -25 -10 -5 0 -3 5
5 10 8 5 20 10 25 10 6 0 3 -5 -5 -10z m40 6 c0 -3 -4 -8 -10 -11 -5 -3 -10
-1 -10 4 0 6 5 11 10 11 6 0 10 -2 10 -4z m259 -3 c-1 -5 0 -10 1 -13 6 -16 7
-41 2 -35 -4 4 -7 12 -7 18 -1 7 -7 11 -15 9 -11 -3 -11 0 0 12 14 17 21 20
19 9z m-475 -18 c-4 -8 -11 -12 -16 -9 -6 4 -5 10 3 15 19 12 19 11 13 -6z
m65 -8 c-11 -11 -23 -16 -27 -12 -4 4 -1 10 6 12 6 3 10 8 8 12 -3 4 4 7 14 7
18 0 18 -1 -1 -19z m915 11 c-3 -4 -12 -8 -21 -8 -9 0 -13 -3 -9 -7 11 -11 30
-10 38 1 4 6 10 -2 14 -17 3 -16 4 -31 0 -34 -3 -4 -6 3 -6 14 0 11 -7 20 -15
20 -8 0 -15 -5 -15 -11 0 -5 -6 -1 -14 10 -9 11 -11 23 -5 30 10 12 41 15 33
2z m-1047 -4 c-3 -3 -12 -4 -19 -1 -8 3 -5 6 6 6 11 1 17 -2 13 -5z m448 -4
c3 -5 2 -10 -4 -10 -5 0 -13 5 -16 10 -3 6 -2 10 4 10 5 0 13 -4 16 -10z m130
1 c3 -5 2 -12 -3 -15 -5 -3 -9 1 -9 9 0 17 3 19 12 6z m412 3 c-3 -3 -12 -4
-19 -1 -8 3 -5 6 6 6 11 1 17 -2 13 -5z m-1114 -19 c-3 -9 -8 -14 -10 -11 -3
3 -2 9 2 15 9 16 15 13 8 -4z m344 9 c-3 -3 -12 -4 -19 -1 -8 3 -5 6 6 6 11 1
17 -2 13 -5z m898 -4 c3 -5 1 -10 -4 -10 -6 0 -11 5 -11 10 0 6 2 10 4 10 3 0
8 -4 11 -10z m-945 -10 c-8 -5 -19 -10 -25 -10 -5 0 -3 5 5 10 8 5 20 10 25
10 6 0 3 -5 -5 -10z m1157 -6 c-3 -3 -12 -4 -19 -1 -8 3 -5 6 6 6 11 1 17 -2
13 -5z m69 -31 c-7 -7 -26 7 -26 19 0 6 6 6 15 -2 9 -7 13 -15 11 -17z m-404
-2 c-3 -9 -1 -12 6 -7 7 4 12 5 12 2 0 -15 -20 -13 -35 4 -16 18 -16 19 3 17
13 -1 18 -6 14 -16z m-342 -6 c7 -8 9 -15 6 -15 -4 0 -14 7 -22 15 -9 8 -11
15 -6 15 5 0 15 -7 22 -15z m395 5 c3 -5 1 -10 -4 -10 -6 0 -11 5 -11 10 0 6
2 10 4 10 3 0 8 -4 11 -10z m-1556 -14 c9 -11 9 -16 -1 -22 -7 -4 -10 -4 -6 1
4 4 3 14 -3 22 -6 7 -9 13 -6 13 2 0 10 -6 16 -14z m135 -4 c3 -5 -1 -9 -9 -9
-8 0 -12 4 -9 9 3 4 7 8 9 8 2 0 6 -4 9 -8z m1956 -2 c13 -9 13 -11 0 -19 -9
-6 -19 -6 -26 0 -6 5 -20 7 -30 3 -11 -3 -9 1 6 10 30 18 31 18 50 6z m-2255
-9 c-9 -8 -36 -10 -30 -2 2 4 11 8 20 8 8 0 13 -3 10 -6z m2025 -1 c0 -5 -4
-10 -10 -10 -5 0 -10 5 -10 10 0 6 5 10 10 10 6 0 10 -4 10 -10z m-1815 -10
c3 -6 -1 -7 -9 -4 -18 7 -21 14 -7 14 6 0 13 -4 16 -10z m1158 3 c3 -5 -6 -8
-19 -8 -13 0 -24 3 -24 8 0 4 9 7 19 7 11 0 22 -3 24 -7z m-1578 -23 c-3 -5
-12 -10 -18 -10 -7 0 -6 4 3 10 19 12 23 12 15 0z m2645 -10 c-8 -5 -19 -10
-25 -10 -5 0 -3 5 5 10 8 5 20 10 25 10 6 0 3 -5 -5 -10z m-2760 -15 c5 3 11
1 14 -3 3 -5 -5 -8 -17 -7 -29 3 -29 3 -21 17 6 9 9 9 12 0 2 -7 8 -10 12 -7z
m80 5 c0 -5 -2 -10 -4 -10 -3 0 -8 5 -11 10 -3 6 -1 10 4 10 6 0 11 -4 11 -10z
m1640 6 c0 -2 -7 -7 -16 -10 -8 -3 -12 -2 -9 4 6 10 25 14 25 6z m354 -12 c5
-14 4 -15 -9 -4 -17 14 -19 20 -6 20 5 0 12 -7 15 -16z m-2108 -22 c-6 -6 -56
10 -56 18 0 5 13 3 30 -3 16 -6 28 -13 26 -15z m154 18 c0 -5 -5 -10 -11 -10
-5 0 -7 5 -4 10 3 6 8 10 11 10 2 0 4 -4 4 -10z m2730 -10 c8 -5 11 -10 5 -10
-5 0 -17 5 -25 10 -8 5 -10 10 -5 10 6 0 17 -5 25 -10z m-2795 -9 c3 -5 2 -12
-3 -15 -5 -3 -9 1 -9 9 0 17 3 19 12 6z m2055 -1 c0 -5 -2 -10 -4 -10 -3 0 -8
5 -11 10 -3 6 -1 10 4 10 6 0 11 -4 11 -10z m657 4 c-3 -3 -12 -4 -19 -1 -8 3
-5 6 6 6 11 1 17 -2 13 -5z m208 -4 c3 -5 1 -10 -4 -10 -6 0 -11 5 -11 10 0 6
2 10 4 10 3 0 8 -4 11 -10z m-2975 -4 c0 -2 -7 -7 -16 -10 -8 -3 -12 -2 -9 4
6 10 25 14 25 6z m133 -3 c-7 -2 -19 -2 -25 0 -7 3 -2 5 12 5 14 0 19 -2 13
-5z m2742 -3 c-3 -5 -14 -10 -23 -9 -14 0 -13 2 3 9 27 11 27 11 20 0z m-3289
-37 c-10 -10 -19 5 -10 18 6 11 8 11 12 0 2 -7 1 -15 -2 -18z m3519 9 c-3 -3
-11 0 -18 7 -9 10 -8 11 6 5 10 -3 15 -9 12 -12z m-959 -16 c-1 -18 -4 -22
-13 -14 -10 8 -10 13 0 23 7 8 13 14 13 15 1 0 1 -11 0 -24z m929 14 c3 -5 2
-10 -4 -10 -5 0 -13 5 -16 10 -3 6 -2 10 4 10 5 0 13 -4 16 -10z m-1266 -55
c0 -5 -4 -2 -10 8 -10 18 -11 18 -25 0 -14 -17 -14 -16 -4 5 6 12 8 28 5 35
-4 6 3 1 14 -13 11 -14 21 -29 20 -35z m-2372 31 c0 -8 -6 -12 -15 -9 -11 5
-11 7 0 14 7 5 13 9 14 9 0 0 1 -6 1 -14z m87 5 c4 -5 -3 -7 -14 -4 -23 6 -26
13 -6 13 8 0 17 -4 20 -9z m3659 -3 c-2 -5 0 -8 6 -8 5 0 13 5 16 10 3 6 12
10 18 10 7 0 4 -5 -6 -11 -9 -6 -15 -15 -11 -21 4 -6 -1 -6 -14 1 -26 14 -28
14 -46 -5 -14 -13 -16 -13 -16 0 0 8 -6 16 -12 19 -7 2 1 2 17 0 21 -3 26 -1
16 5 -11 8 -8 10 12 9 14 -1 23 -5 20 -9z m97 -8 c8 -5 12 -11 10 -14 -3 -2
-14 2 -24 10 -22 15 -10 19 14 4z m-4056 -18 c3 -5 -1 -9 -9 -9 -8 0 -12 4 -9
9 3 4 7 8 9 8 2 0 6 -4 9 -8z m3863 -8 c-3 -3 -12 -4 -19 -1 -8 3 -5 6 6 6 11
1 17 -2 13 -5z m-854 -21 c-3 -7 -6 -13 -8 -13 -2 0 -5 6 -8 13 -3 8 1 14 8
14 7 0 11 -6 8 -14z m-3221 -16 c-12 -7 -19 -16 -16 -20 4 -4 2 -7 -4 -7 -7 0
-12 4 -12 10 0 10 29 29 45 29 6 0 0 -5 -13 -12z m93 3 c-3 -5 -13 -10 -21
-10 -8 0 -12 5 -9 10 3 6 13 10 21 10 8 0 12 -4 9 -10z m2700 0 c3 -5 1 -10
-4 -10 -6 0 -11 5 -11 10 0 6 2 10 4 10 3 0 8 -4 11 -10z m-2885 -10 c-8 -5
-19 -10 -25 -10 -5 0 -3 5 5 10 8 5 20 10 25 10 6 0 3 -5 -5 -10z m128 -18 c2
-7 -1 -12 -8 -12 -6 0 -9 4 -6 9 4 5 1 12 -4 14 -6 3 -5 4 2 3 6 -1 14 -8 16
-14z m3183 -5 c-10 -9 -11 -8 -5 6 3 10 9 15 12 12 3 -3 0 -11 -7 -18z m1266
-3 c-5 -5 -57 13 -57 20 0 3 14 0 31 -6 16 -6 28 -12 26 -14z m88 16 c3 -5 1
-10 -4 -10 -6 0 -11 5 -11 10 0 6 2 10 4 10 3 0 8 -4 11 -10z m-1755 -10 c0
-5 -2 -10 -4 -10 -3 0 -8 5 -11 10 -3 6 -1 10 4 10 6 0 11 -4 11 -10z m30 -15
c14 -19 14 -19 -2 -6 -10 7 -18 18 -18 24 0 6 1 8 3 6 1 -2 9 -13 17 -24z
m1785 2 c4 5 5 2 1 -4 -10 -19 -19 -16 -35 10 -13 21 -13 22 6 4 11 -9 23 -14
28 -10z m-5015 -17 c0 -5 -5 -10 -11 -10 -5 0 -7 5 -4 10 3 6 8 10 11 10 2 0
4 -4 4 -10z m-75 -20 c-3 -5 -12 -10 -18 -10 -7 0 -6 4 3 10 19 12 23 12 15 0z
m5130 -10 c-3 -5 -2 -10 4 -10 5 0 11 3 14 8 2 4 2 1 0 -7 -2 -8 2 -11 12 -8
8 4 17 1 21 -6 4 -7 4 -9 -1 -5 -4 4 -17 3 -28 -3 -14 -8 -18 -8 -13 0 4 6 0
11 -8 11 -17 0 -21 12 -9 23 10 10 15 8 8 -3z m-5376 -23 c-2 -1 -13 -9 -24
-17 -19 -14 -19 -14 -6 3 7 9 18 17 24 17 6 0 8 -1 6 -3z m121 -12 c0 -2 -9
-3 -19 -2 -11 0 -18 5 -15 9 4 6 34 0 34 -7z m190 11 c0 -2 -13 -6 -29 -8 -17
-2 -28 -1 -25 4 5 8 54 12 54 4z m3257 -38 c-3 -8 -6 -5 -6 6 -1 11 2 17 5 13
3 -3 4 -12 1 -19z m427 6 c5 -14 4 -15 -9 -4 -17 14 -19 20 -6 20 5 0 12 -7
15 -16z m-447 -36 c-3 -8 -6 -5 -6 6 -1 11 2 17 5 13 3 -3 4 -12 1 -19z m425
15 c0 -5 2 -20 3 -35 2 -23 -1 -26 -11 -17 -16 13 -19 23 -4 14 14 -9 12 19
-2 33 -9 9 -9 12 0 12 7 0 13 -3 14 -7z m1522 -2 c3 -5 -1 -17 -9 -27 -11 -16
-16 -17 -27 -6 -11 11 -10 12 3 7 10 -4 19 0 23 11 4 12 2 15 -9 11 -8 -4 -16
-3 -19 1 -3 4 4 8 14 9 11 1 22 -2 24 -6z m-1899 -21 c3 -5 1 -10 -4 -10 -6 0
-11 5 -11 10 0 6 2 10 4 10 3 0 8 -4 11 -10z m468 -37 c-7 -2 -19 -2 -25 0 -7
3 -2 5 12 5 14 0 19 -2 13 -5z m1511 -32 c-3 -3 -15 6 -27 18 l-22 24 27 -19
c14 -10 24 -21 22 -23z m-5494 5 c0 -2 -8 -10 -17 -17 -16 -13 -17 -12 -4 4
13 16 21 21 21 13z m96 -34 c18 -22 19 -28 8 -52 -9 -17 -15 -81 -18 -186 l-4
-159 -28 0 c-25 0 -30 6 -42 45 -18 58 -41 226 -35 251 3 10 0 19 -6 19 -6 0
-11 -7 -11 -17 0 -9 -3 -14 -6 -10 -9 9 6 48 17 42 5 -4 9 7 9 22 0 32 15 55
44 71 25 13 46 5 72 -26z m3884 23 c16 -19 1 -19 -24 0 -16 12 -17 15 -4 15 8
0 21 -7 28 -15z m-4634 -1087 c-4 -590 -11 -1293 -16 -1563 -5 -269 -10 -653
-10 -851 l0 -362 -192 -6 c-106 -3 -366 -8 -578 -11 -352 -5 -963 -20 -1840
-45 -914 -26 -2089 -33 -3658 -22 -865 6 -1579 9 -1586 6 -15 -6 -21 303 -36
1826 -5 542 -12 1011 -16 1042 -6 54 -6 57 17 62 38 9 2037 264 3384 432 418
52 1239 151 1825 220 1351 159 2364 287 2625 333 28 5 59 9 69 10 19 1 19 -20
12 -1071z m4830 1037 c-1 -8 -5 -17 -8 -21 -5 -4 -4 16 1 34 3 9 9 -1 7 -13z
m1375 -2 c13 -16 12 -17 -3 -4 -17 13 -22 21 -14 21 2 0 10 -8 17 -17z m-6044
-37 c65 -18 162 -43 214 -56 l96 -22 5 -267 c5 -298 11 -329 61 -323 l27 3 2
-208 c0 -114 2 -221 4 -238 2 -16 4 -196 5 -400 2 -303 -1 -420 -19 -645 -11
-151 -24 -342 -28 -425 -3 -82 -8 -166 -9 -185 -2 -19 -6 -226 -9 -460 -4
-234 -9 -443 -12 -466 l-5 -40 -167 -13 c-92 -7 -198 -15 -237 -18 l-70 -5 2
1208 c3 1198 13 2594 19 2594 1 0 56 -15 121 -34z m6041 -7 c-3 -8 -7 -3 -11
10 -4 17 -3 21 5 13 5 -5 8 -16 6 -23z m-1301 15 c-3 -3 -12 -4 -19 -1 -8 3
-5 6 6 6 11 1 17 -2 13 -5z m716 -31 c-7 -2 -19 -2 -25 0 -7 3 -2 5 12 5 14 0
19 -2 13 -5z m-26 -19 c-3 -3 -12 -4 -19 -1 -8 3 -5 6 6 6 11 1 17 -2 13 -5z
m-1386 -53 c-7 -12 -19 -20 -29 -20 -16 1 -16 2 1 6 11 3 17 14 17 31 0 19 3
23 11 15 8 -8 8 -17 0 -32z m1332 32 c-7 -2 -19 -2 -25 0 -7 3 -2 5 12 5 14 0
19 -2 13 -5z m760 -7 c17 -13 16 -14 -3 -19 -12 -3 -18 -1 -14 5 4 6 0 14 -7
19 -8 5 -9 9 -4 9 6 -1 18 -7 28 -14z m-1438 -6 c126 -14 273 -43 540 -105
127 -30 354 -77 505 -105 536 -99 669 -146 797 -282 96 -102 196 -289 233
-434 23 -88 25 -127 9 -189 l-11 -45 -32 26 c-33 28 -59 41 -226 109 -310 126
-446 150 -1395 245 -335 33 -614 62 -620 64 -5 2 -18 43 -28 92 -36 174 -149
535 -164 520 -2 -2 12 -71 31 -152 39 -169 96 -438 96 -458 0 -11 -56 -31
-109 -39 -16 -2 -87 153 -128 283 -37 114 -40 263 -6 326 24 46 82 100 122
116 92 36 227 46 386 28z m1225 -30 c0 -5 -7 -10 -16 -10 -8 0 -12 5 -9 10 3
6 10 10 16 10 5 0 9 -4 9 -10z m-163 -6 c-3 -3 -12 -4 -19 -1 -8 3 -5 6 6 6
11 1 17 -2 13 -5z m258 -32 c-3 -3 -11 0 -18 7 -9 10 -8 11 6 5 10 -3 15 -9
12 -12z m-5638 -24 c-3 -7 -5 -2 -5 12 0 14 2 19 5 13 2 -7 2 -19 0 -25z
m5598 11 c11 -16 1 -19 -13 -3 -7 8 -8 14 -3 14 5 0 13 -5 16 -11z m152 -11
c-3 -8 -6 -5 -6 6 -1 11 2 17 5 13 3 -3 4 -12 1 -19z m-5667 -23 c0 -5 -5 -3
-10 5 -8 12 -10 12 -10 1 0 -8 -2 -12 -5 -9 -3 3 -2 13 1 22 5 14 9 15 15 4 5
-7 9 -17 9 -23z m3520 21 c0 -2 -7 -7 -16 -10 -8 -3 -12 -2 -9 4 6 10 25 14
25 6z m2165 -16 c-3 -5 -12 -10 -18 -10 -7 0 -6 4 3 10 19 12 23 12 15 0z
m-5718 -52 c-3 -8 -6 -5 -6 6 -1 11 2 17 5 13 3 -3 4 -12 1 -19z m3333 8 c0
-3 -4 -8 -10 -11 -5 -3 -10 -1 -10 4 0 6 5 11 10 11 6 0 10 -2 10 -4z m-1183
-32 c-3 -3 -12 -4 -19 -1 -8 3 -5 6 6 6 11 1 17 -2 13 -5z m230 0 c-3 -3 -12
-4 -19 -1 -8 3 -5 6 6 6 11 1 17 -2 13 -5z m40 -10 c-3 -3 -12 -4 -19 -1 -8 3
-5 6 6 6 11 1 17 -2 13 -5z m86 -1 c-7 -2 -19 -2 -25 0 -7 3 -2 5 12 5 14 0
19 -2 13 -5z m-2539 -36 c6 -24 5 -26 -7 -16 -8 8 -12 22 -9 32 6 22 7 20 16
-16z m13 11 c-3 -8 -6 -5 -6 6 -1 11 2 17 5 13 3 -3 4 -12 1 -19z m2163 18 c0
-11 -19 -15 -25 -6 -3 5 1 10 9 10 9 0 16 -2 16 -4z m663 -3 c-7 -2 -19 -2
-25 0 -7 3 -2 5 12 5 14 0 19 -2 13 -5z m-943 -13 c0 -5 -4 -10 -10 -10 -5 0
-10 5 -10 10 0 6 5 10 10 10 6 0 10 -4 10 -10z m50 -10 c0 -5 -5 -10 -11 -10
-5 0 -7 5 -4 10 3 6 8 10 11 10 2 0 4 -4 4 -10z m143 3 c-13 -2 -33 -2 -45 0
-13 2 -3 4 22 4 25 0 35 -2 23 -4z m654 1 c-3 -3 -12 -4 -19 -1 -8 3 -5 6 6 6
11 1 17 -2 13 -5z m-114 -11 c-7 -2 -21 -2 -30 0 -10 3 -4 5 12 5 17 0 24 -2
18 -5z m-2633 -68 c0 -5 -5 -3 -10 5 -5 8 -10 20 -10 25 0 6 5 3 10 -5 5 -8
10 -19 10 -25z m17 13 c-3 -8 -6 -5 -6 6 -1 11 2 17 5 13 3 -3 4 -12 1 -19z
m966 -25 c-7 -2 -21 -2 -30 0 -10 3 -4 5 12 5 17 0 24 -2 18 -5z m-985 -38
c-3 -3 -9 2 -12 12 -6 14 -5 15 5 6 7 -7 10 -15 7 -18z m687 -3 c-3 -3 -11 0
-18 7 -9 10 -8 11 6 5 10 -3 15 -9 12 -12z m-468 -8 c-3 -3 -12 -4 -19 -1 -8
3 -5 6 6 6 11 1 17 -2 13 -5z m180 0 c-3 -3 -12 -4 -19 -1 -8 3 -5 6 6 6 11 1
17 -2 13 -5z m106 -11 c-7 -2 -19 -2 -25 0 -7 3 -2 5 12 5 14 0 19 -2 13 -5z
m-103 -13 c-19 -13 -30 -13 -30 0 0 6 10 10 23 10 18 0 19 -2 7 -10z m1190
-318 c-6 -2 -7 -9 -4 -14 4 -7 2 -8 -5 -4 -6 4 -8 12 -5 18 5 7 1 9 -9 5 -11
-4 -14 -2 -11 8 5 11 10 12 25 2 11 -7 15 -13 9 -15z m140 7 c0 -5 -4 -9 -8
-9 -5 0 -9 7 -9 15 0 8 4 12 9 9 4 -3 8 -9 8 -15z m-235 1 c17 -8 16 -8 -7 -7
-16 1 -28 5 -28 9 0 10 9 9 35 -2z m310 -10 c3 -5 1 -10 -4 -10 -6 0 -11 5
-11 10 0 6 2 10 4 10 3 0 8 -4 11 -10z m-755 -14 c-7 -7 -13 -7 -20 0 -6 6 -3
10 10 10 13 0 16 -4 10 -10z m110 10 c0 -3 -4 -8 -10 -11 -5 -3 -10 -1 -10 4
0 6 5 11 10 11 6 0 10 -2 10 -4z m60 -6 c8 -5 11 -10 5 -10 -5 0 -17 5 -25 10
-8 5 -10 10 -5 10 6 0 17 -5 25 -10z m480 -10 c10 -6 6 -8 -12 -7 -14 1 -31 8
-38 16 -11 11 -9 12 11 6 13 -4 31 -11 39 -15z m-696 2 c3 -5 -1 -9 -9 -9 -8
0 -12 4 -9 9 3 4 7 8 9 8 2 0 6 -4 9 -8z m536 -6 c-4 -4 -16 -4 -26 2 -16 9
-14 10 8 9 15 -1 23 -6 18 -11z m245 4 c15 -6 11 -8 -16 -7 -21 1 -35 5 -32
10 5 9 22 8 48 -3z m145 -45 c0 -12 -19 -12 -23 0 -4 9 -1 12 9 8 7 -3 14 -7
14 -8z m-1670 1 c0 -2 -7 -7 -16 -10 -8 -3 -12 -2 -9 4 6 10 25 14 25 6z m100
-6 c0 -5 -5 -10 -11 -10 -5 0 -7 5 -4 10 3 6 8 10 11 10 2 0 4 -4 4 -10z
m3990 0 c63 -6 225 -24 360 -40 135 -16 335 -39 445 -50 397 -41 628 -82 824
-146 l107 -35 23 -87 c13 -48 74 -253 136 -457 192 -626 239 -824 215 -909
-20 -71 -45 -88 -147 -97 -111 -9 -594 6 -997 31 -446 29 -580 52 -685 119
-132 85 -197 209 -251 476 -12 61 -58 268 -102 460 -70 311 -113 530 -133 693
l-7 52 49 0 c26 0 100 -5 163 -10z m-4267 -15 c-3 -9 -8 -14 -10 -11 -3 3 -2
9 2 15 9 16 15 13 8 -4z m412 6 c3 -6 -3 -9 -14 -8 -11 0 -17 5 -15 9 7 11 22
10 29 -1z m-288 -7 c-3 -3 -12 -4 -19 -1 -8 3 -5 6 6 6 11 1 17 -2 13 -5z
m1687 -6 c-5 -8 0 -9 16 -5 16 4 20 3 12 -5 -13 -13 -46 -2 -37 12 3 5 8 10
11 10 3 0 2 -5 -2 -12z m64 -19 c-3 -8 -7 -3 -11 10 -4 17 -3 21 5 13 5 -5 8
-16 6 -23z m1432 -32 c-47 -18 -111 -50 -142 -71 -64 -42 -141 -133 -183 -216
l-28 -54 12 -131 c13 -148 17 -400 14 -788 l-3 -269 -322 7 c-178 4 -341 11
-362 17 -47 12 -91 56 -107 106 -6 20 -14 143 -19 272 -10 280 -17 404 -33
565 -7 66 -12 181 -12 255 0 130 1 137 28 183 34 58 97 101 170 117 29 6 162
14 297 17 135 2 342 8 460 12 118 4 238 8 265 9 l50 1 -85 -32z m-3320 13 c0
-5 -2 -10 -4 -10 -3 0 -8 5 -11 10 -3 6 -1 10 4 10 6 0 11 -4 11 -10z m1930
-25 c0 -15 -21 -12 -30 5 -11 20 -10 21 9 10 12 -6 21 -13 21 -15z m1867 9
c-3 -3 -12 -4 -19 -1 -8 3 -5 6 6 6 11 1 17 -2 13 -5z m33 -39 c14 -19 14 -19
-2 -6 -10 7 -18 18 -18 24 0 6 1 8 3 6 1 -2 9 -13 17 -24z m-3830 5 c0 -5 -2
-10 -4 -10 -3 0 -8 5 -11 10 -3 6 -1 10 4 10 6 0 11 -4 11 -10z m1900 -44 c0
-26 -6 -18 -14 19 -5 22 -4 26 4 15 5 -8 10 -24 10 -34z m37 29 c4 -4 3 -5 -4
-1 -7 3 -13 -1 -15 -11 -3 -15 -5 -15 -10 3 -6 22 12 28 29 9z m1906 -40 c-3
-9 -8 -14 -10 -11 -3 3 -2 9 2 15 9 16 15 13 8 -4z m-3836 -17 c-3 -8 -6 -5
-6 6 -1 11 2 17 5 13 3 -3 4 -12 1 -19z m3851 -39 c-3 -8 -7 -3 -11 10 -4 17
-3 21 5 13 5 -5 8 -16 6 -23z m-3563 3 c23 -19 23 -26 10 -247 -3 -60 -8 -159
-11 -220 -2 -60 -8 -164 -12 -230 -5 -66 -8 -152 -8 -192 1 -39 -2 -66 -6 -60
-4 7 -9 -26 -10 -73 -3 -117 -5 -150 -17 -265 -6 -55 -13 -136 -15 -180 -3
-44 -8 -89 -12 -99 -6 -15 -4 -17 7 -11 11 7 12 6 3 -6 -12 -15 -20 -56 -29
-149 -14 -139 -24 -162 -61 -135 -17 11 -22 29 -28 97 -4 46 -7 109 -6 141 0
31 -3 57 -7 57 -4 0 -8 78 -8 172 0 95 0 205 -1 243 -1 144 3 393 9 485 4 52
9 140 12 195 3 55 10 156 16 224 5 69 9 136 7 150 -1 15 0 31 3 36 4 6 9 22
12 36 4 14 17 31 29 37 35 17 100 14 123 -6z m-262 -5 c2 -6 -1 -18 -8 -24
-10 -10 -14 -9 -19 3 -7 17 0 34 14 34 4 0 10 -6 13 -13z m1947 -32 c0 -5 -5
-3 -10 5 -5 8 -10 20 -10 25 0 6 5 3 10 -5 5 -8 10 -19 10 -25z m1837 3 c-3
-7 -5 -2 -5 12 0 14 2 19 5 13 2 -7 2 -19 0 -25z m-3784 -19 c-6 -6 -9 -18 -6
-27 5 -11 3 -13 -7 -7 -10 6 -12 4 -6 -11 5 -13 4 -16 -3 -9 -5 6 -12 23 -15
38 -4 24 -3 27 9 17 12 -10 16 -9 21 4 4 9 9 14 12 11 3 -3 1 -10 -5 -16z
m6106 -43 c136 -69 151 -94 74 -120 -26 -9 -61 -16 -79 -16 -31 0 -33 3 -63
81 -31 80 -36 99 -26 99 3 0 45 -20 94 -44z m-5805 18 c3 -8 2 -12 -4 -9 -6 3
-10 10 -10 16 0 14 7 11 14 -7z m-306 -61 c-6 -7 -14 -13 -18 -13 -4 0 -10 6
-13 13 -3 7 4 12 18 12 18 0 21 -3 13 -12z m1953 -6 c-10 -9 -11 -8 -5 6 3 10
9 15 12 12 3 -3 0 -11 -7 -18z m-1632 -20 c-1 -20 -2 -20 -9 3 -6 19 -8 21 -9
6 -1 -11 -4 -17 -7 -13 -10 10 5 39 16 32 5 -3 10 -16 9 -28z m3411 13 c0 -5
-5 -10 -11 -10 -5 0 -7 5 -4 10 3 6 8 10 11 10 2 0 4 -4 4 -10z m137 -32 c-3
-7 -5 -2 -5 12 0 14 2 19 5 13 2 -7 2 -19 0 -25z m-1920 -25 c-3 -10 -5 -4 -5
12 0 17 2 24 5 18 2 -7 2 -21 0 -30z m-1962 -47 c1 -20 -2 -33 -7 -30 -5 3 -7
21 -6 39 3 43 10 37 13 -9z m1982 -8 c-3 -8 -6 -5 -6 6 -1 11 2 17 5 13 3 -3
4 -12 1 -19z m1934 -52 c-5 -20 -5 -20 -9 -2 -3 13 -6 15 -12 7 -5 -10 -8 -9
-13 1 -3 9 3 14 18 14 17 0 21 -4 16 -20z m-3834 -8 c-3 -8 -6 -5 -6 6 -1 11
2 17 5 13 3 -3 4 -12 1 -19z m220 -40 c-3 -8 -6 -5 -6 6 -1 11 2 17 5 13 3 -3
4 -12 1 -19z m3630 0 c-3 -8 -6 -5 -6 6 -1 11 2 17 5 13 3 -3 4 -12 1 -19z
m-3597 -3 c1 11 4 15 6 8 3 -7 1 -20 -5 -30 -6 -11 -11 -13 -11 -5 0 7 -4 11
-9 8 -5 -4 -7 4 -3 16 5 21 6 21 13 2 7 -19 8 -19 9 1z m-262 -100 c0 -16 -2
-15 -8 5 -11 34 -11 60 0 35 5 -11 8 -29 8 -40z m-31 13 c-3 -8 -6 -5 -6 6 -1
11 2 17 5 13 3 -3 4 -12 1 -19z m260 0 c-3 -8 -6 -5 -6 6 -1 11 2 17 5 13 3
-3 4 -12 1 -19z m3427 6 c3 -8 2 -12 -4 -9 -6 3 -10 10 -10 16 0 14 7 11 14
-7z m-3393 -25 c-5 -13 -10 -19 -10 -12 -1 15 10 45 15 40 3 -2 0 -15 -5 -28z
m-291 -20 c0 -6 -4 -7 -10 -4 -5 3 -10 11 -10 16 0 6 5 7 10 4 6 -3 10 -11 10
-16z m20 -116 c-11 -17 -11 -17 -6 0 3 10 7 28 7 40 2 22 2 22 6 0 2 -12 -1
-30 -7 -40z m3707 25 c-3 -8 -6 -5 -6 6 -1 11 2 17 5 13 3 -3 4 -12 1 -19z
m193 -125 c-11 -17 -11 -17 -6 0 3 10 7 31 7 45 l2 27 4 -27 c2 -15 -1 -35 -7
-45z m-190 33 c0 -3 -4 -8 -10 -11 -5 -3 -10 -1 -10 4 0 6 5 11 10 11 6 0 10
-2 10 -4z m-1803 -58 c-3 -7 -5 -2 -5 12 0 14 2 19 5 13 2 -7 2 -19 0 -25z
m-1920 -35 c-3 -10 -5 -4 -5 12 0 17 2 24 5 18 2 -7 2 -21 0 -30z m3940 0 c-3
-10 -5 -4 -5 12 0 17 2 24 5 18 2 -7 2 -21 0 -30z m-23 -9 c3 -8 2 -12 -4 -9
-6 3 -10 10 -10 16 0 14 7 11 14 -7z m-3977 -26 c-3 -8 -6 -5 -6 6 -1 11 2 17
5 13 3 -3 4 -12 1 -19z m3990 -20 c-3 -8 -6 -5 -6 6 -1 11 2 17 5 13 3 -3 4
-12 1 -19z m-20 -10 c-3 -8 -6 -5 -6 6 -1 11 2 17 5 13 3 -3 4 -12 1 -19z
m-3900 -20 c-3 -8 -6 -5 -6 6 -1 11 2 17 5 13 3 -3 4 -12 1 -19z m-20 -40 c-3
-7 -5 -2 -5 12 0 14 2 19 5 13 2 -7 2 -19 0 -25z m3728 -7 c3 -5 1 -12 -5 -16
-5 -3 -10 1 -10 9 0 18 6 21 15 7z m-3756 -76 c0 -5 -4 -3 -9 5 -5 8 -9 22 -9
30 0 16 17 -16 18 -35z m4025 -15 c-5 -5 -10 3 -11 18 -1 22 0 24 9 8 6 -10 6
-22 2 -26z m-4054 -37 c0 -15 2 -16 10 -3 8 12 10 12 16 -3 3 -10 4 -21 0 -24
-3 -4 -6 -1 -6 6 0 7 -4 10 -9 6 -6 -3 -15 4 -21 15 -7 13 -7 20 0 20 5 0 10
-8 10 -17z m4061 -2 c7 11 9 10 9 -4 0 -20 -22 -19 -26 1 -2 9 -1 9 3 1 4 -8
8 -7 14 2z m-271 -37 c0 -8 -4 -12 -10 -9 -5 3 -10 10 -10 16 0 5 5 9 10 9 6
0 10 -7 10 -16z m-3730 -24 c0 -5 -5 -10 -11 -10 -5 0 -7 5 -4 10 3 6 8 10 11
10 2 0 4 -4 4 -10z m-59 -27 c-12 -20 -14 -14 -5 12 4 9 9 14 11 11 3 -2 0
-13 -6 -23z m30 -34 c-5 -13 -10 -19 -10 -12 -1 15 10 45 15 40 3 -2 0 -15 -5
-28z m-11 -42 c0 -1 -11 -2 -24 -2 -14 0 -22 5 -19 12 4 9 10 10 24 2 10 -5
19 -11 19 -12z m3780 -2 c0 -12 -19 -12 -23 0 -4 9 -1 12 9 8 7 -3 14 -7 14
-8z m-3786 -40 c3 -8 1 -15 -4 -15 -6 0 -10 7 -10 15 0 8 2 15 4 15 2 0 6 -7
10 -15z m43 -17 c-3 -8 -6 -5 -6 6 -1 11 2 17 5 13 3 -3 4 -12 1 -19z m4082
-1 c8 -10 7 -14 -2 -14 -8 0 -14 6 -14 14 0 7 1 13 2 13 2 0 8 -6 14 -13z
m-4149 -28 c-7 -11 -14 -18 -17 -15 -3 3 0 12 7 21 18 21 23 19 10 -6z m3807
-1 c-3 -8 -6 -5 -6 6 -1 11 2 17 5 13 3 -3 4 -12 1 -19z m-17 -75 c-11 -17
-11 -17 -6 0 3 10 6 24 7 30 0 9 2 9 5 0 3 -7 0 -20 -6 -30z m404 1 c3 -8 2
-12 -4 -9 -6 3 -10 10 -10 16 0 14 7 11 14 -7z m-44 -49 c0 -8 -2 -15 -4 -15
-2 0 -6 7 -10 15 -3 8 -1 15 4 15 6 0 10 -7 10 -15z m-4063 -37 c-3 -8 -6 -5
-6 6 -1 11 2 17 5 13 3 -3 4 -12 1 -19z m2271 5 c-10 -2 -26 -2 -35 0 -10 3
-2 5 17 5 19 0 27 -2 18 -5z m1428 -8 c-3 -8 -3 -22 1 -31 5 -13 8 -13 15 -2
8 11 9 11 6 0 -2 -8 -6 -12 -9 -10 -11 6 -38 -23 -33 -36 2 -6 -7 -23 -20 -35
-14 -13 -24 -27 -21 -30 2 -4 -5 -8 -16 -8 -16 -2 -17 1 -8 18 6 12 13 18 16
15 8 -7 43 23 43 37 0 5 -8 3 -17 -4 -17 -13 -17 -13 0 7 9 11 14 24 10 28 -5
4 -2 6 6 4 7 -1 16 3 19 11 3 8 0 11 -7 7 -8 -5 -8 0 1 18 12 28 24 36 14 11z
m-3509 -17 c-3 -8 -6 -5 -6 6 -1 11 2 17 5 13 3 -3 4 -12 1 -19z m1998 2 c-10
-11 -21 -17 -24 -14 -3 3 3 12 13 20 28 20 32 17 11 -6z m218 3 c-24 -2 -62
-2 -85 0 -24 2 -5 4 42 4 47 0 66 -2 43 -4z m1775 -18 c-3 -3 -9 2 -12 12 -6
14 -5 15 5 6 7 -7 10 -15 7 -18z m-4181 -47 c-3 -8 -6 -5 -6 6 -1 11 2 17 5
13 3 -3 4 -12 1 -19z m1903 12 c0 -5 -2 -10 -4 -10 -3 0 -8 5 -11 10 -3 6 -1
10 4 10 6 0 11 -4 11 -10z m1807 -37 c1 -22 -1 -24 -8 -10 -6 9 -7 22 -4 27 9
14 10 13 12 -17z m-827 7 c-20 -13 -33 -13 -25 0 3 6 14 10 23 10 15 0 15 -2
2 -10z m-983 -22 c-3 -8 -6 -5 -6 6 -1 11 2 17 5 13 3 -3 4 -12 1 -19z m1032
9 c8 -10 7 -14 -4 -14 -8 0 -12 4 -9 8 2 4 -2 10 -8 12 -8 4 -9 6 -2 6 6 1 17
-5 23 -12z m1315 -1 c-5 -13 -34 -31 -34 -21 0 5 30 35 35 35 3 0 2 -6 -1 -14z
m-4064 -43 c0 -32 -5 -28 -14 10 -4 19 -3 26 4 22 5 -3 10 -18 10 -32z m3510
33 c0 -2 -7 -7 -16 -10 -8 -3 -12 -2 -9 4 6 10 25 14 25 6z m592 -13 c20 -18
24 -33 7 -33 -5 0 -8 4 -4 9 3 5 -5 17 -17 25 -12 9 -18 16 -14 16 5 0 18 -7
28 -17z m-4305 -35 c-3 -7 -5 -2 -5 12 0 14 2 19 5 13 2 -7 2 -19 0 -25z m30
-35 c-3 -10 -5 -4 -5 12 0 17 2 24 5 18 2 -7 2 -21 0 -30z m3593 27 c8 -5 11
-10 5 -10 -5 0 -17 5 -25 10 -8 5 -10 10 -5 10 6 0 17 -5 25 -10z m747 4 c-3
-3 -12 -4 -19 -1 -8 3 -5 6 6 6 11 1 17 -2 13 -5z m-1397 -18 c0 -2 -7 -7 -16
-10 -8 -3 -12 -2 -9 4 6 10 25 14 25 6z m680 -10 c0 -2 -7 -7 -16 -10 -8 -3
-12 -2 -9 4 6 10 25 14 25 6z m840 -1 c0 -7 -30 -13 -34 -7 -3 4 4 9 15 9 10
1 19 0 19 -2z m-908 -12 c-6 -2 -9 -10 -6 -15 4 -7 2 -8 -5 -4 -13 9 -5 26 12
25 9 0 8 -2 -1 -6z m-185 -19 c-3 -3 -12 -4 -19 -1 -8 3 -5 6 6 6 11 1 17 -2
13 -5z m416 -9 c-3 -9 -8 -14 -10 -11 -3 3 -2 9 2 15 9 16 15 13 8 -4z m-73
-7 c0 -11 -22 -10 -39 1 -10 7 -7 9 12 8 15 -1 27 -5 27 -9z m874 -4 c5 -14 4
-15 -9 -4 -17 14 -19 20 -6 20 5 0 12 -7 15 -16z m-1357 -10 c-3 -3 -12 -4
-19 -1 -8 3 -5 6 6 6 11 1 17 -2 13 -5z m153 -4 c-8 -5 -22 -9 -30 -9 -10 0
-8 3 5 9 27 12 43 12 25 0z m1270 6 c0 -2 -7 -7 -16 -10 -8 -3 -12 -2 -9 4 6
10 25 14 25 6z m-110 -16 c8 -5 12 -11 10 -14 -3 -2 -14 2 -24 10 -22 15 -10
19 14 4z m134 2 c2 -4 -5 -9 -17 -9 -17 -2 -19 0 -7 7 18 12 18 12 24 2z
m-4674 -37 c0 -5 -5 -3 -10 5 -5 8 -10 20 -10 25 0 6 5 3 10 -5 5 -8 10 -19
10 -25z m3090 31 c0 -2 -7 -6 -15 -10 -8 -3 -15 -1 -15 4 0 6 7 10 15 10 8 0
15 -2 15 -4z m163 -3 c-7 -2 -21 -2 -30 0 -10 3 -4 5 12 5 17 0 24 -2 18 -5z
m437 3 c0 -2 -7 -7 -16 -10 -8 -3 -12 -2 -9 4 6 10 25 14 25 6z m895 -6 c-3
-5 -12 -10 -18 -10 -7 0 -6 4 3 10 19 12 23 12 15 0z m-1175 -47 c0 -32 -7
-27 -14 10 -3 16 -1 25 5 22 5 -4 9 -18 9 -32z m1799 23 c-7 -7 -77 -11 -84
-5 -3 3 16 7 42 8 26 1 45 -1 42 -3z m91 -12 c0 -2 -7 -4 -15 -4 -8 0 -15 4
-15 10 0 5 7 7 15 4 8 -4 15 -8 15 -10z m-5340 -64 l-11 -25 6 25 c2 14 5 36
6 50 l2 25 4 -25 c2 -14 -1 -37 -7 -50z m2220 60 c0 -5 -5 -10 -11 -10 -5 0
-7 5 -4 10 3 6 8 10 11 10 2 0 4 -4 4 -10z m1668 -2 c5 -7 12 -24 16 -38 3
-14 3 -19 0 -12 -3 6 -10 10 -15 7 -5 -4 -6 2 -2 11 4 11 -1 22 -12 30 -10 8
-14 14 -8 14 6 0 15 -6 21 -12z m1176 -4 c6 -15 4 -15 -11 -3 -10 7 -20 15
-22 16 -2 2 3 3 11 3 9 0 19 -7 22 -16z m360 6 c2 -3 -13 -5 -34 -5 -21 0 -37
3 -34 6 4 8 60 6 68 -1z m62 -5 c-3 -8 0 -15 6 -15 6 0 9 -2 6 -5 -3 -3 -16
-1 -29 4 -17 7 -19 10 -6 10 9 1 17 6 17 11 0 6 3 10 6 10 3 0 4 -7 0 -15z
m-259 -1 c-3 -3 -12 -4 -19 -1 -8 3 -5 6 6 6 11 1 17 -2 13 -5z m323 -8 c-7
-7 -13 -7 -20 0 -6 6 -3 10 10 10 13 0 16 -4 10 -10z m560 4 c0 -5 -5 -10 -11
-10 -5 0 -7 5 -4 10 3 6 8 10 11 10 2 0 4 -4 4 -10z m-3930 -19 c0 -11 -3 -22
-7 -24 -5 -3 -8 6 -8 19 0 13 3 24 8 24 4 0 7 -9 7 -19z m2924 3 c4 -10 12
-14 24 -9 14 5 15 4 4 -7 -10 -10 -16 -8 -34 10 -12 12 -17 22 -11 22 6 0 14
-7 17 -16z m236 6 c0 -5 -4 -10 -9 -10 -6 0 -13 5 -16 10 -3 6 1 10 9 10 9 0
16 -4 16 -10z m247 3 c-4 -3 -1 -13 6 -21 11 -13 9 -14 -10 -2 -22 14 -22 30
-1 30 6 0 8 -3 5 -7z m88 -2 c3 -5 2 -12 -3 -15 -5 -3 -9 1 -9 9 0 17 3 19 12
6z m80 0 c3 -5 2 -12 -3 -15 -5 -3 -9 1 -9 9 0 17 3 19 12 6z m32 -13 c-3 -8
-6 -5 -6 6 -1 11 2 17 5 13 3 -3 4 -12 1 -19z m158 12 c3 -5 1 -10 -4 -10 -6
0 -11 5 -11 10 0 6 2 10 4 10 3 0 8 -4 11 -10z m-2468 -15 c0 -8 -4 -12 -9 -9
-5 3 -6 10 -3 15 9 13 12 11 12 -6z m1753 5 c0 -5 -4 -10 -10 -10 -5 0 -10 5
-10 10 0 6 5 10 10 10 6 0 10 -4 10 -10z m657 4 c-3 -3 -12 -4 -19 -1 -8 3 -5
6 6 6 11 1 17 -2 13 -5z m-5981 -30 c1 -9 0 -13 -4 -10 -3 4 -7 14 -8 22 -1 9
0 13 4 10 3 -4 7 -14 8 -22z m6344 5 c0 -6 -4 -7 -10 -4 -5 3 -10 11 -10 16 0
6 5 7 10 4 6 -3 10 -11 10 -16z m-873 5 c-3 -3 -12 -4 -19 -1 -8 3 -5 6 6 6
11 1 17 -2 13 -5z m899 -24 c1 -16 -3 -27 -7 -24 -14 8 -9 54 5 54 1 0 1 -13
2 -30z m-2812 -22 c-4 -6 0 -15 7 -20 12 -8 12 -9 0 -6 -8 3 -18 17 -22 32 -6
23 -5 25 7 16 7 -7 11 -17 8 -22z m31 22 c3 -6 -1 -7 -9 -4 -18 7 -21 14 -7
14 6 0 13 -4 16 -10z m-3354 -33 c-10 -9 -11 -8 -5 6 3 10 9 15 12 12 3 -3 0
-11 -7 -18z m1726 -19 c-3 -8 -6 -5 -6 6 -1 11 2 17 5 13 3 -3 4 -12 1 -19z
m316 2 c3 -11 1 -18 -4 -14 -5 3 -9 12 -9 20 0 20 7 17 13 -6z m-2286 -42 c-3
-8 -6 -5 -6 6 -1 11 2 17 5 13 3 -3 4 -12 1 -19z m3723 0 c0 -13 -23 -5 -28
10 -2 7 2 10 12 6 9 -3 16 -11 16 -16z m-1453 -20 c-3 -7 -5 -2 -5 12 0 14 2
19 5 13 2 -7 2 -19 0 -25z m1403 17 c11 -13 10 -14 -4 -9 -9 3 -16 10 -16 15
0 13 6 11 20 -6z m136 -21 c-6 -6 -12 -8 -14 -3 -2 5 -10 9 -18 9 -12 0 -12 3
-2 14 9 9 17 10 29 3 13 -8 14 -13 5 -23z m188 21 c3 -8 1 -15 -4 -15 -6 0
-10 7 -10 15 0 8 2 15 4 15 2 0 6 -7 10 -15z m-44 -15 c0 -5 8 -11 18 -13 15
-4 15 -5 0 -6 -9 0 -20 4 -23 9 -3 6 -11 10 -17 10 -7 0 -7 -4 1 -13 8 -10 7
-14 -3 -14 -10 0 -15 30 -7 44 3 6 31 -10 31 -17z m-305 0 c8 -13 -5 -13 -25
0 -13 8 -13 10 2 10 9 0 20 -4 23 -10z m243 -3 c8 -10 6 -13 -11 -14 -12 0
-16 1 -8 4 11 5 11 7 0 14 -8 5 -9 9 -3 9 6 0 16 -6 22 -13z m-2071 -33 c-3
-3 -12 -4 -19 -1 -8 3 -5 6 6 6 11 1 17 -2 13 -5z m4541 -19 c-3 -3 -9 2 -12
12 -6 14 -5 15 5 6 7 -7 10 -15 7 -18z m26 -5 c-6 -6 -10 -3 -10 10 0 13 4 16
10 10 7 -7 7 -13 0 -20z m-5429 10 c-11 -5 -27 -9 -35 -9 -13 -1 -13 0 0 9 8
5 24 9 35 9 l20 0 -20 -9z m1612 4 c-3 -3 -12 -4 -19 -1 -8 3 -5 6 6 6 11 1
17 -2 13 -5z m-248 -33 c-6 -2 -18 4 -27 13 -15 15 -15 15 10 4 15 -7 23 -15
17 -17z m3111 19 c0 -5 -4 -10 -10 -10 -5 0 -10 5 -10 10 0 6 5 10 10 10 6 0
10 -4 10 -10z m-3007 -7 c-7 -2 -19 -2 -25 0 -7 3 -2 5 12 5 14 0 19 -2 13 -5z
m107 -17 c0 -2 -11 -6 -25 -8 -14 -3 -25 -1 -25 3 0 5 11 9 25 9 14 0 25 -2
25 -4z m653 -33 c-7 -2 -19 -2 -25 0 -7 3 -2 5 12 5 14 0 19 -2 13 -5z m847 3
c0 -3 -4 -8 -10 -11 -5 -3 -10 -1 -10 4 0 6 5 11 10 11 6 0 10 -2 10 -4z m367
-2 c-3 -3 -12 -4 -19 -1 -8 3 -5 6 6 6 11 1 17 -2 13 -5z m1496 -1 c-7 -2 -19
-2 -25 0 -7 3 -2 5 12 5 14 0 19 -2 13 -5z m-1623 -7 c0 -2 -8 -10 -17 -17
-16 -13 -17 -12 -4 4 13 16 21 21 21 13z m70 -18 c0 -6 -6 -5 -15 2 -8 7 -15
14 -15 16 0 2 7 1 15 -2 8 -4 15 -11 15 -16z m1580 12 c-8 -5 -24 -9 -35 -9
-16 1 -16 2 5 9 35 11 48 11 30 0z m169 -6 c8 -7 -74 -2 -99 6 -16 5 -2 6 35
3 33 -3 62 -7 64 -9z m-2246 -1 c-7 -2 -19 -2 -25 0 -7 3 -2 5 12 5 14 0 19
-2 13 -5z m358 0 c-11 -5 -11 -7 0 -14 11 -7 10 -9 -3 -9 -18 0 -23 11 -11 23
3 4 11 7 17 6 6 0 5 -3 -3 -6z m234 -3 c-3 -5 -12 -10 -18 -10 -7 0 -6 4 3 10
19 12 23 12 15 0z m1232 4 c-3 -3 -12 -4 -19 -1 -8 3 -5 6 6 6 11 1 17 -2 13
-5z m150 -10 c-3 -3 -12 -4 -19 -1 -8 3 -5 6 6 6 11 1 17 -2 13 -5z m360 0
c-3 -3 -12 -4 -19 -1 -8 3 -5 6 6 6 11 1 17 -2 13 -5z m-2330 -10 c-3 -3 -12
-4 -19 -1 -8 3 -5 6 6 6 11 1 17 -2 13 -5z m438 -84 c-3 -5 -12 -10 -18 -10
-7 0 -6 4 3 10 19 12 23 12 15 0z m54 -15 c-10 -10 -18 -11 -29 -4 -13 9 -12
10 3 5 11 -3 20 0 24 10 3 8 8 12 11 9 3 -3 -1 -12 -9 -20z m106 -5 c-27 -12
-43 -12 -25 0 8 5 22 9 30 9 10 0 8 -3 -5 -9z m109 2 c3 -5 -1 -9 -9 -9 -8 0
-12 4 -9 9 3 4 7 8 9 8 2 0 6 -4 9 -8z m-2691 -17 c-3 -9 -8 -14 -10 -11 -3 3
-2 9 2 15 9 16 15 13 8 -4z m2385 -4 c-7 -11 -16 -17 -21 -14 -4 3 0 11 10 19
24 18 25 17 11 -5z m-3286 -16 c14 -19 8 -23 -17 -12 -14 7 -25 15 -25 18 0
10 34 5 42 -6z m68 -1 c0 -2 -7 -4 -15 -4 -8 0 -15 4 -15 10 0 5 7 7 15 4 8
-4 15 -8 15 -10z m165 6 c-3 -5 -12 -10 -18 -10 -7 0 -6 4 3 10 19 12 23 12
15 0z m696 -3 c-1 -12 -15 -9 -19 4 -3 6 1 10 8 8 6 -3 11 -8 11 -12z m-1441
-7 c-8 -5 -19 -10 -25 -10 -5 0 -3 5 5 10 8 5 20 10 25 10 6 0 3 -5 -5 -10z
m2223 3 c-13 -2 -24 -11 -24 -19 -3 -34 -19 -65 -31 -58 -5 3 -1 12 9 20 14
11 15 13 3 14 -10 0 -11 3 -4 8 6 4 13 15 17 25 4 10 16 16 29 16 l23 -2 -22
-4z m377 -3 c0 -5 -2 -10 -4 -10 -3 0 -8 5 -11 10 -3 6 -1 10 4 10 6 0 11 -4
11 -10z m135 0 c-3 -5 -16 -15 -28 -21 -21 -10 -21 -9 2 10 25 23 36 27 26 11z
m1427 -23 c11 -21 10 -21 -7 -7 -17 13 -18 13 -13 -1 4 -9 1 -16 -7 -16 -10 0
-11 5 -4 19 5 10 7 24 3 30 -4 7 -3 8 4 4 7 -4 17 -17 24 -29z m-4236 5 c-21
-2 -42 0 -47 5 -4 4 13 6 39 3 l47 -5 -39 -3z m121 -1 c-1 -16 -5 -18 -19 -10
-23 12 -24 20 -1 12 11 -4 14 -3 9 5 -4 7 -3 12 3 12 5 0 9 -9 8 -19z m313 15
c0 -2 -7 -7 -16 -10 -8 -3 -12 -2 -9 4 6 10 25 14 25 6z m1808 -16 c-7 -10
-14 -17 -17 -15 -4 4 18 35 25 35 2 0 -1 -9 -8 -20z m382 10 c0 -5 -4 -10 -10
-10 -5 0 -10 5 -10 10 0 6 5 10 10 10 6 0 10 -4 10 -10z m250 -5 c7 -9 8 -15
2 -15 -5 0 -12 7 -16 15 -3 8 -4 15 -2 15 2 0 9 -7 16 -15z m80 5 c0 -5 -2
-10 -4 -10 -3 0 -8 5 -11 10 -3 6 -1 10 4 10 6 0 11 -4 11 -10z m75 0 c3 -5 1
-10 -4 -10 -6 0 -11 5 -11 10 0 6 2 10 4 10 3 0 8 -4 11 -10z m837 -5 c2 3 5
-2 5 -10 0 -19 0 -19 -23 7 -12 14 -13 18 -3 10 9 -6 18 -10 21 -7z m-3932 1
c0 -2 -11 -6 -25 -8 -13 -3 -22 -1 -19 3 5 9 44 13 44 5z m427 -11 c0 -8 -4
-12 -9 -9 -5 3 -6 10 -3 15 9 13 12 11 12 -6z m138 6 c-12 -12 -65 -26 -65
-17 0 3 15 10 33 15 43 12 42 12 32 2z m132 3 c-3 -3 -12 -4 -19 -1 -8 3 -5 6
6 6 11 1 17 -2 13 -5z m900 -16 c-3 -8 -6 -5 -6 6 -1 11 2 17 5 13 3 -3 4 -12
1 -19z m318 12 c3 -5 -1 -10 -10 -10 -9 0 -13 5 -10 10 3 6 8 10 10 10 2 0 7
-4 10 -10z m1215 0 c0 -5 -5 -10 -11 -10 -5 0 -7 5 -4 10 3 6 8 10 11 10 2 0
4 -4 4 -10z m-2890 -10 c18 -12 2 -12 -25 0 -13 6 -15 9 -5 9 8 0 22 -4 30 -9z
m3053 -4 c4 -10 1 -13 -8 -9 -8 3 -12 9 -9 14 7 12 11 11 17 -5z m147 4 c0 -5
-2 -10 -4 -10 -3 0 -8 5 -11 10 -3 6 -1 10 4 10 6 0 11 -4 11 -10z m2690 0
c-8 -5 -19 -10 -25 -10 -5 0 -3 5 5 10 8 5 20 10 25 10 6 0 3 -5 -5 -10z
m-6410 -10 c8 -5 11 -10 5 -10 -5 0 -17 5 -25 10 -8 5 -10 10 -5 10 6 0 17 -5
25 -10z m363 3 c-13 -2 -35 -2 -50 0 -16 2 -5 4 22 4 28 0 40 -2 28 -4z m2151
1 c11 -4 16 -19 16 -46 0 -34 -3 -39 -17 -34 -9 4 -68 10 -131 13 l-113 6 3
26 c3 25 6 26 88 32 47 3 97 6 112 7 14 1 33 -1 42 -4z m756 -4 c0 -5 -2 -10
-4 -10 -3 0 -8 5 -11 10 -3 6 -1 10 4 10 6 0 11 -4 11 -10z m617 4 c-3 -3 -12
-4 -19 -1 -8 3 -5 6 6 6 11 1 17 -2 13 -5z m49 -6 c-10 -6 -22 -6 -26 -2 -5 5
3 10 18 11 22 1 24 0 8 -9z m2555 -5 c12 -16 12 -17 -2 -6 -9 7 -20 9 -24 5
-5 -4 -5 -1 -1 6 9 16 11 15 27 -5z m-6521 -7 c0 -3 -4 -8 -10 -11 -5 -3 -10
-1 -10 4 0 6 5 11 10 11 6 0 10 -2 10 -4z m3992 -21 c3 -14 1 -25 -3 -25 -5 0
-9 11 -9 25 0 14 2 25 4 25 2 0 6 -11 8 -25z m646 -20 c-3 -3 -9 2 -12 12 -6
14 -5 15 5 6 7 -7 10 -15 7 -18z m1906 17 c3 -5 -1 -9 -9 -9 -8 0 -12 4 -9 9
3 4 7 8 9 8 2 0 6 -4 9 -8z m-3947 -24 c-3 -8 -6 -5 -6 6 -1 11 2 17 5 13 3
-3 4 -12 1 -19z m3868 -13 c4 -28 -9 -34 -19 -9 -4 9 -2 13 5 8 8 -4 9 1 4 17
-4 13 -4 21 0 17 4 -4 9 -19 10 -33z m35 5 c0 13 1 13 10 0 9 -13 11 -13 21 0
9 13 10 13 6 0 -5 -19 -49 -19 -54 0 -4 13 -3 13 6 0 10 -13 11 -13 11 0z
m-2292 -55 c-3 -3 -9 2 -12 12 -6 14 -5 15 5 6 7 -7 10 -15 7 -18z m-1698 -6
c0 -5 -10 -8 -22 -8 -18 1 -19 2 -5 6 9 2 14 9 11 15 -4 7 -2 8 4 4 7 -4 12
-11 12 -17z m58 -4 c-3 -3 -9 2 -12 12 -6 14 -5 15 5 6 7 -7 10 -15 7 -18z
m-241 -15 c-1 -10 -5 -17 -9 -14 -4 3 -5 11 -1 19 4 11 0 14 -13 9 -15 -5 -16
-4 -4 4 18 14 29 7 27 -18z m-2322 11 c3 -5 1 -12 -4 -15 -5 -3 -11 1 -15 9
-6 16 9 21 19 6z m2275 5 c0 -2 -8 -10 -17 -17 -16 -13 -17 -12 -4 4 13 16 21
21 21 13z m170 -16 c-8 -5 -22 -9 -30 -9 -10 0 -8 3 5 9 27 12 43 12 25 0z
m2222 -22 c-8 -8 -9 -4 -5 13 4 13 8 18 11 10 2 -7 -1 -18 -6 -23z m-2372 18
c0 -2 -7 -7 -16 -10 -8 -3 -12 -2 -9 4 6 10 25 14 25 6z m205 -6 c3 -6 -1 -7
-9 -4 -18 7 -21 14 -7 14 6 0 13 -4 16 -10z m3965 -24 c0 -3 -4 -8 -10 -11 -5
-3 -10 -1 -10 4 0 6 5 11 10 11 6 0 10 -2 10 -4z m-1790 -126 c0 -5 -5 -10
-11 -10 -5 0 -7 5 -4 10 3 6 8 10 11 10 2 0 4 -4 4 -10z m-4680 -4 c0 -3 -4
-8 -10 -11 -5 -3 -10 -1 -10 4 0 6 5 11 10 11 6 0 10 -2 10 -4z m313 -23 c-7
-2 -19 -2 -25 0 -7 3 -2 5 12 5 14 0 19 -2 13 -5z m170 0 c-7 -2 -19 -2 -25 0
-7 3 -2 5 12 5 14 0 19 -2 13 -5z m4221 -9 c3 -8 2 -12 -4 -9 -6 3 -10 10 -10
16 0 14 7 11 14 -7z m-4397 -10 c-3 -3 -12 -4 -19 -1 -8 3 -5 6 6 6 11 1 17
-2 13 -5z m-47 -14 c-8 -5 -19 -10 -25 -10 -5 0 -3 5 5 10 8 5 20 10 25 10 6
0 3 -5 -5 -10z m6348 -15 c-3 -3 -9 2 -12 12 -6 14 -5 15 5 6 7 -7 10 -15 7
-18z m-1884 -11 c3 -8 2 -12 -4 -9 -6 3 -10 10 -10 16 0 14 7 11 14 -7z m1759
-16 c6 -22 5 -22 -8 -4 -17 22 -20 40 -6 32 5 -3 11 -16 14 -28z m-6563 -232
l0 -243 -82 -7 c-206 -18 -413 -34 -415 -33 -6 7 20 473 28 477 5 4 73 12 152
19 78 7 167 16 197 20 30 5 70 9 88 10 l32 1 0 -244z m1060 224 c-8 -5 -19
-10 -25 -10 -5 0 -3 5 5 10 8 5 20 10 25 10 6 0 3 -5 -5 -10z m1275 -12 c-9
-6 -19 -7 -22 -4 -4 3 -1 6 6 6 7 0 9 4 6 10 -4 6 1 7 11 3 15 -6 15 -7 -1
-15z m-926 -4 c10 -9 -35 -3 -49 6 -11 8 -7 9 15 4 17 -4 32 -8 34 -10z m568
-18 c-4 -9 -12 -16 -19 -16 -10 0 -9 3 1 9 9 6 11 16 7 27 -6 15 -4 16 5 7 6
-6 9 -19 6 -27z m317 18 c5 -14 4 -15 -9 -4 -17 14 -19 20 -6 20 5 0 12 -7 15
-16z m143 10 c-3 -3 -12 -4 -19 -1 -8 3 -5 6 6 6 11 1 17 -2 13 -5z m4196 -1
c3 -5 -8 -8 -24 -9 -15 -1 -26 3 -23 7 6 11 41 12 47 2z m-5598 -21 c-3 -3
-11 0 -18 7 -9 10 -8 11 6 5 10 -3 15 -9 12 -12z m510 0 c-3 -3 -11 0 -18 7
-9 10 -8 11 6 5 10 -3 15 -9 12 -12z m2844 -27 c0 -5 -4 -3 -9 5 -5 8 -9 22
-9 30 0 16 17 -16 18 -35z m-4906 -122 c4 -87 7 -185 7 -218 l0 -60 -78 -2
c-42 -1 -129 -8 -192 -14 -257 -26 -3356 15 -4950 66 -91 3 -309 10 -485 15
-176 5 -367 12 -425 15 -58 2 -469 16 -915 31 -445 15 -813 30 -816 33 -4 3
-9 51 -12 107 l-5 101 42 -9 c199 -40 4065 -32 6021 12 674 16 1483 51 1786
79 14 1 17 -21 22 -156z m2954 151 c-3 -3 -12 -4 -19 -1 -8 3 -5 6 6 6 11 1
17 -2 13 -5z m1450 0 c-3 -3 -12 -4 -19 -1 -8 3 -5 6 6 6 11 1 17 -2 13 -5z
m-1521 -22 c-10 -2 -22 0 -28 6 -6 6 0 7 19 4 21 -5 23 -7 9 -10z m1699 8 c-3
-5 -12 -10 -18 -10 -7 0 -6 4 3 10 19 12 23 12 15 0z m-2502 -7 c-7 -2 -19 -2
-25 0 -7 3 -2 5 12 5 14 0 19 -2 13 -5z m2434 1 c-3 -3 -12 -4 -19 -1 -8 3 -5
6 6 6 11 1 17 -2 13 -5z m-440 -30 c-3 -3 -12 -4 -19 -1 -8 3 -5 6 6 6 11 1
17 -2 13 -5z m-480 -10 c-3 -3 -12 -4 -19 -1 -8 3 -5 6 6 6 11 1 17 -2 13 -5z
m1403 -4 c0 -5 -4 -10 -10 -10 -5 0 -10 5 -10 10 0 6 5 10 10 10 6 0 10 -4 10
-10z m-70 -20 c6 -11 8 -20 6 -20 -3 0 -10 9 -16 20 -6 11 -8 20 -6 20 3 0 10
-9 16 -20z m45 -1 c11 -17 -1 -21 -15 -4 -8 9 -8 15 -2 15 6 0 14 -5 17 -11z
m-4 -46 c13 -16 12 -17 -3 -4 -10 7 -18 15 -18 17 0 8 8 3 21 -13z m-4270 -44
c-9 -23 -9 -22 -8 8 1 18 6 28 10 24 4 -4 3 -18 -2 -32z m139 26 c7 -8 8 -15
2 -15 -5 0 -15 7 -22 15 -7 8 -8 15 -2 15 5 0 15 -7 22 -15z m4217 9 c-3 -3
-12 -4 -19 -1 -8 3 -5 6 6 6 11 1 17 -2 13 -5z m260 0 c-3 -3 -12 -4 -19 -1
-8 3 -5 6 6 6 11 1 17 -2 13 -5z m-4517 -14 c0 -5 -8 -10 -17 -10 -15 0 -16 2
-3 10 19 12 20 12 20 0z m80 0 c0 -5 -4 -10 -10 -10 -5 0 -10 5 -10 10 0 6 5
10 10 10 6 0 10 -4 10 -10z m80 0 c12 -8 9 -9 -12 -8 -15 1 -24 6 -22 10 7 10
16 10 34 -2z m4269 -16 c14 -12 -39 -1 -55 11 -17 13 -16 14 16 3 19 -6 37
-13 39 -14z m-4198 5 c11 -5 16 -15 13 -21 -5 -8 -1 -9 12 -4 10 4 15 3 10 -1
-4 -4 -19 -8 -33 -8 -21 -1 -22 1 -9 11 14 10 13 12 -7 22 -12 6 -18 11 -14
11 5 1 17 -4 28 -10z m68 -15 c14 -12 -19 -1 -35 12 -18 14 -18 14 6 3 14 -6
27 -13 29 -15z m62 10 c13 3 18 3 11 0 -6 -3 -9 -10 -6 -16 3 -5 14 -2 25 8
17 15 19 16 14 2 -8 -21 -28 -29 -46 -17 -19 12 -32 11 -24 -1 3 -6 -1 -7 -10
-3 -13 5 -14 7 -3 14 10 7 11 9 0 9 -7 0 -10 5 -6 11 5 8 9 8 14 -1 4 -7 17
-10 31 -6z m3986 10 c-3 -3 -12 -4 -19 -1 -8 3 -5 6 6 6 11 1 17 -2 13 -5z
m-3882 -36 c-9 -6 -19 -7 -22 -4 -4 3 -1 6 6 6 7 0 9 4 6 10 -4 6 1 7 11 3 15
-6 15 -7 -1 -15z m190 12 c3 -5 2 -10 -4 -10 -5 0 -13 5 -16 10 -3 6 -2 10 4
10 5 0 13 -4 16 -10z m-545 -4 c0 -2 -7 -7 -16 -10 -8 -3 -12 -2 -9 4 6 10 25
14 25 6z m470 -10 c-4 -4 -16 -4 -26 2 -16 9 -14 10 8 9 15 -1 23 -6 18 -11z
m185 4 c-3 -5 -12 -10 -18 -10 -7 0 -6 4 3 10 19 12 23 12 15 0z m74 1 c10 -7
7 -9 -12 -8 -15 1 -27 5 -27 10 0 10 22 9 39 -2z m-1052 -33 c-3 -8 -6 -5 -6
6 -1 11 2 17 5 13 3 -3 4 -12 1 -19z m1560 -10 c-3 -8 -6 -5 -6 6 -1 11 2 17
5 13 3 -3 4 -12 1 -19z m840 16 c-3 -3 -12 -4 -19 -1 -8 3 -5 6 6 6 11 1 17
-2 13 -5z m56 -1 c-7 -2 -19 -2 -25 0 -7 3 -2 5 12 5 14 0 19 -2 13 -5z m207
3 c0 -2 -7 -6 -15 -10 -8 -3 -15 -1 -15 4 0 6 7 10 15 10 8 0 15 -2 15 -4z
m75 -6 c-3 -5 -14 -10 -23 -9 -14 0 -13 2 3 9 27 11 27 11 20 0z m80 0 c3 -6
-1 -7 -9 -4 -18 7 -21 14 -7 14 6 0 13 -4 16 -10z m125 0 c0 -5 -2 -10 -4 -10
-3 0 -8 5 -11 10 -3 6 -1 10 4 10 6 0 11 -4 11 -10z m217 4 c-3 -3 -12 -4 -19
-1 -8 3 -5 6 6 6 11 1 17 -2 13 -5z m-1682 -14 c-11 -5 -14 -9 -7 -9 7 -1 10
-5 7 -11 -4 -6 -11 -5 -19 3 -15 13 -3 27 24 26 10 0 8 -3 -5 -9z m132 4 c-3
-3 -12 -4 -19 -1 -8 3 -5 6 6 6 11 1 17 -2 13 -5z m73 -4 c18 -12 2 -12 -25 0
-13 6 -15 9 -5 9 8 0 22 -4 30 -9z m530 -10 c-24 -15 -36 -11 -14 4 10 8 21
12 24 10 2 -3 -2 -9 -10 -14z m73 13 c-7 -2 -21 -2 -30 0 -10 3 -4 5 12 5 17
0 24 -2 18 -5z m-756 -9 c-3 -3 -12 -4 -19 -1 -8 3 -5 6 6 6 11 1 17 -2 13 -5z
m255 -11 c-10 -4 -9 -8 3 -17 15 -10 14 -12 -4 -12 -11 0 -17 4 -14 9 3 5 -5
6 -18 3 -24 -7 -24 -7 1 8 14 9 30 15 35 15 6 0 4 -3 -3 -6z m531 0 c-7 -2
-19 -2 -25 0 -7 3 -2 5 12 5 14 0 19 -2 13 -5z m57 3 c0 -11 -19 -15 -25 -6
-3 5 1 10 9 10 9 0 16 -2 16 -4z m70 -2 c0 -8 -19 -13 -24 -6 -3 5 1 9 9 9 8
0 15 -2 15 -3z m25 -4 c3 -5 1 -10 -4 -10 -6 0 -11 5 -11 10 0 6 2 10 4 10 3
0 8 -4 11 -10z m-2470 -45 c0 -34 -2 -41 -9 -26 -7 16 -2 71 7 71 1 0 2 -20 2
-45z m1635 35 c8 -5 11 -10 5 -10 -5 0 -17 5 -25 10 -8 5 -10 10 -5 10 6 0 17
-5 25 -10z m943 -4 c4 -10 1 -13 -8 -9 -8 3 -12 9 -9 14 7 12 11 11 17 -5z
m-1128 -6 c3 -6 -1 -7 -9 -4 -18 7 -21 14 -7 14 6 0 13 -4 16 -10z m1765 -25
c7 -9 8 -15 2 -15 -5 0 -12 7 -16 15 -3 8 -4 15 -2 15 2 0 9 -7 16 -15z m659
-36 c13 -11 21 -19 18 -19 -6 0 -78 47 -87 57 -9 11 45 -20 69 -38z m-2014 21
c3 -5 2 -10 -4 -10 -5 0 -13 5 -16 10 -3 6 -2 10 4 10 5 0 13 -4 16 -10z
m1637 -10 c88 0 98 -2 84 -15 -8 -8 -21 -15 -28 -15 -10 0 -9 3 2 10 10 7 -13
10 -75 10 -49 0 -97 5 -105 11 -12 9 -12 10 3 5 10 -3 64 -6 119 -6z m323 -10
c3 -6 -1 -7 -9 -4 -18 7 -21 14 -7 14 6 0 13 -4 16 -10z m-1942 -14 c4 -10 1
-13 -8 -9 -8 3 -12 9 -9 14 7 12 11 11 17 -5z m1297 -3 c0 -10 -4 -14 -8 -8
-4 6 -11 13 -16 18 -5 4 -2 7 7 7 10 0 17 -8 17 -17z m595 7 c-3 -5 -12 -10
-18 -10 -7 0 -6 4 3 10 19 12 23 12 15 0z m-3748 -32 c-3 -8 -6 -5 -6 6 -1 11
2 17 5 13 3 -3 4 -12 1 -19z m1876 -33 c-3 -9 -8 -14 -10 -11 -3 3 -2 9 2 15
9 16 15 13 8 -4z m1981 -1 c3 -8 2 -12 -4 -9 -6 3 -10 10 -10 16 0 14 7 11 14
-7z m-10881 -14 l51 0 -54 -33 c-47 -28 -56 -31 -64 -18 -5 9 -18 27 -30 40
l-21 24 34 -7 c18 -3 56 -6 84 -6z m10927 1 c0 -5 -7 -11 -14 -14 -10 -4 -13
-1 -9 9 6 15 23 19 23 5z m-2012 -36 c-3 -3 -9 2 -12 12 -6 14 -5 15 5 6 7 -7
10 -15 7 -18z m-1791 9 c-3 -3 -12 -4 -19 -1 -8 3 -5 6 6 6 11 1 17 -2 13 -5z
m-60 -25 c14 6 28 9 31 6 3 -3 -1 -5 -9 -5 -11 0 -11 -2 -2 -8 8 -5 -1 -8 -22
-9 -21 -1 -39 5 -47 16 -12 14 -11 15 5 2 14 -11 23 -12 44 -2z m-137 -33 c0
-29 -4 -35 -27 -40 -16 -4 -52 -23 -82 -43 l-55 -36 -23 29 c-13 16 -23 36
-23 45 0 8 -5 20 -12 27 -9 9 -5 12 18 13 16 0 65 9 109 18 44 10 83 19 88 20
4 0 7 -14 7 -33z m-3440 -9 c-189 -65 -302 -198 -366 -432 l-24 -90 6 265 c3
145 8 268 10 272 3 4 103 8 222 8 l217 -1 -65 -22z m3650 13 c8 -5 11 -10 5
-10 -5 0 -17 5 -25 10 -8 5 -10 10 -5 10 6 0 17 -5 25 -10z m-2079 -26 c-30
-13 -55 -23 -56 -22 -1 2 -8 13 -14 26 -12 22 -11 22 56 21 l68 0 -54 -25z
m3832 13 c3 -8 -1 -14 -8 -14 -7 0 -11 6 -8 14 3 7 6 13 8 13 2 0 5 -6 8 -13z
m2077 -12 c0 -8 -2 -15 -4 -15 -2 0 -6 7 -10 15 -3 8 -1 15 4 15 6 0 10 -7 10
-15z m-3740 -9 c-7 -7 -13 -7 -20 0 -6 6 -3 10 10 10 13 0 16 -4 10 -10z m100
0 c-7 -7 -13 -7 -20 0 -6 6 -3 10 10 10 13 0 16 -4 10 -10z m-30 -24 c0 -15
-2 -15 -10 -2 -13 20 -13 33 0 25 6 -3 10 -14 10 -23z m1960 18 c0 -5 -4 -10
-10 -10 -5 0 -10 5 -10 10 0 6 5 10 10 10 6 0 10 -4 10 -10z m-1936 -22 c-5
-7 -2 -9 9 -5 11 4 14 2 10 -9 -4 -11 -9 -12 -19 -3 -12 10 -11 29 2 29 3 0 2
-5 -2 -12z m1911 1 c11 -17 -1 -21 -15 -4 -8 9 -8 15 -2 15 6 0 14 -5 17 -11z
m-335 -34 c0 -2 -6 -8 -13 -14 -10 -8 -14 -7 -14 2 0 8 6 14 14 14 7 0 13 -1
13 -2z m335 -13 c-3 -3 -11 0 -18 7 -9 10 -8 11 6 5 10 -3 15 -9 12 -12z
m-1774 -9 c7 -10 9 -15 5 -11 -5 4 -15 0 -23 -10 -13 -15 -13 -15 -4 4 6 12 7
24 4 28 -3 3 -4 6 -1 6 3 0 12 -8 19 -17z m1459 14 c0 -2 -10 -12 -22 -23
l-23 -19 19 23 c18 21 26 27 26 19z m537 -3 c-3 -3 -12 -4 -19 -1 -8 3 -5 6 6
6 11 1 17 -2 13 -5z m-1962 -13 c3 -5 2 -12 -3 -15 -5 -3 -9 1 -9 9 0 17 3 19
12 6z m1272 3 c-3 -3 -12 -4 -19 -1 -8 3 -5 6 6 6 11 1 17 -2 13 -5z m70 0
c-3 -3 -12 -4 -19 -1 -8 3 -5 6 6 6 11 1 17 -2 13 -5z m-40 -18 c0 -8 -8 -11
-21 -8 -19 5 -19 6 0 13 10 4 19 8 20 8 0 1 1 -5 1 -13z m58 -14 c-3 -3 -11 0
-18 7 -9 10 -8 11 6 5 10 -3 15 -9 12 -12z m622 12 c-3 -3 -12 -4 -19 -1 -8 3
-5 6 6 6 11 1 17 -2 13 -5z m28 -24 c3 -6 -1 -7 -9 -4 -18 7 -21 14 -7 14 6 0
13 -4 16 -10z m1472 -22 c-3 -7 -5 -2 -5 12 0 14 2 19 5 13 2 -7 2 -19 0 -25z
m-3387 -3 c0 0 -10 -9 -22 -19 -17 -15 -20 -15 -15 -3 3 9 1 18 -6 20 -7 2 0
4 15 3 16 0 28 -1 28 -1z m955 -5 c-3 -5 -14 -10 -23 -9 -14 0 -13 2 3 9 27
11 27 11 20 0z m1108 3 c-7 -2 -19 -2 -25 0 -7 3 -2 5 12 5 14 0 19 -2 13 -5z
m-1013 -13 c0 -5 -10 -10 -22 -9 -22 0 -22 1 -3 9 11 5 21 9 23 9 1 1 2 -3 2
-9z m2330 -39 c0 -6 -4 -13 -10 -16 -5 -3 -10 1 -10 9 0 9 5 16 10 16 6 0 10
-4 10 -9z m-3340 -27 c0 -8 -19 -13 -24 -6 -3 5 1 9 9 9 8 0 15 -2 15 -3z m35
-4 c3 -6 -1 -7 -9 -4 -18 7 -21 14 -7 14 6 0 13 -4 16 -10z m75 -10 c0 -5 -4
-10 -10 -10 -5 0 -10 5 -10 10 0 6 5 10 10 10 6 0 10 -4 10 -10z m690 5 c0 -7
-30 -13 -34 -7 -3 4 4 9 15 9 10 1 19 0 19 -2z m-729 -56 c13 -26 7 -24 -22 7
-17 19 -19 23 -6 18 10 -3 22 -15 28 -25z m728 28 c-2 -1 -13 -9 -24 -17 -19
-14 -19 -14 -6 3 7 9 18 17 24 17 6 0 8 -1 6 -3z m1315 -23 c7 -19 2 -18 -19
6 -16 17 -16 20 -3 15 9 -4 19 -13 22 -21z m-10598 -13 c83 -51 116 -148 117
-346 1 -141 -14 -215 -57 -284 -30 -47 -53 -67 -99 -86 -35 -15 -41 -14 -82 4
-90 40 -143 160 -152 346 -3 64 -1 132 5 162 17 79 70 179 106 203 41 26 120
27 162 1z m9184 -31 c6 -11 8 -20 6 -20 -3 0 -10 9 -16 20 -6 11 -8 20 -6 20
3 0 10 -9 16 -20z m-7901 -86 c66 -59 94 -125 94 -224 1 -168 -104 -290 -249
-290 -91 0 -139 29 -183 110 -35 63 -36 69 -36 170 0 116 19 177 73 233 40 42
60 51 132 57 83 7 109 -2 169 -56z m7342 49 c13 -16 12 -17 -3 -4 -17 13 -22
21 -14 21 2 0 10 -8 17 -17z m61 -45 c-8 -8 -9 -4 -5 13 4 13 8 18 11 10 2 -7
-1 -18 -6 -23z m68 12 c0 -5 -4 -10 -10 -10 -5 0 -10 5 -10 10 0 6 5 10 10 10
6 0 10 -4 10 -10z m370 7 c0 -2 -10 -12 -22 -23 l-23 -19 19 23 c18 21 26 27
26 19z m1621 -24 l24 -26 -32 23 c-34 25 -39 30 -25 30 5 0 19 -12 33 -27z
m-1601 14 c0 -2 -10 -12 -22 -23 l-23 -19 19 23 c18 21 26 27 26 19z m-415
-18 c11 -16 1 -19 -13 -3 -7 8 -8 14 -3 14 5 0 13 -5 16 -11z m-20 -20 c11
-17 -1 -21 -15 -4 -8 9 -8 15 -2 15 6 0 14 -5 17 -11z m2085 1 c0 -5 -2 -10
-4 -10 -3 0 -8 5 -11 10 -3 6 -1 10 4 10 6 0 11 -4 11 -10z m-2030 -14 c0 -2
-9 -6 -20 -9 -11 -3 -18 -1 -14 4 5 9 34 13 34 5z m2068 -22 c12 -8 28 -12 35
-8 9 5 9 4 1 -5 -9 -10 -19 -8 -45 8 -19 12 -29 21 -24 21 6 0 21 -7 33 -16z
m-1784 -9 c-10 -8 -26 -14 -34 -14 -9 0 -4 6 10 14 33 19 49 19 24 0z m1871 5
c3 -6 -1 -7 -9 -4 -18 7 -21 14 -7 14 6 0 13 -4 16 -10z m-6235 -59 c-52 -76
-104 -188 -132 -287 -17 -60 -23 -105 -23 -189 0 -100 3 -115 28 -170 31 -67
54 -94 111 -136 59 -44 64 -35 9 15 -115 103 -141 273 -76 481 21 67 87 199
130 258 19 27 32 55 29 63 -16 41 127 -30 182 -90 174 -188 157 -550 -33 -741
-71 -72 -133 -100 -215 -99 -180 4 -299 156 -316 404 -20 280 129 550 304 550
l42 0 -40 -59z m6205 29 c3 -5 1 -10 -4 -10 -6 0 -11 5 -11 10 0 6 2 10 4 10
3 0 8 -4 11 -10z m32 -15 c0 -8 -4 -12 -9 -9 -5 3 -6 10 -3 15 9 13 12 11 12
-6z m-4470 -35 c290 -142 355 -702 109 -928 -65 -59 -122 -87 -207 -102 -56
-10 -71 -8 -121 9 -270 93 -404 397 -316 715 78 281 312 415 535 306z m4793 6
c0 -3 -4 -8 -10 -11 -5 -3 -10 -1 -10 4 0 6 5 11 10 11 6 0 10 -2 10 -4z m550
-36 c-20 -13 -33 -13 -25 0 3 6 14 10 23 10 15 0 15 -2 2 -10z m-3606 -69
c165 -58 269 -216 270 -411 0 -171 -82 -277 -255 -331 -81 -25 -161 -25 -213
2 l-41 20 -1 157 c-1 174 -13 281 -50 450 -14 63 -23 116 -21 118 2 3 24 9 48
14 65 14 198 4 263 -19z m1931 -36 c130 -34 232 -107 308 -223 156 -234 176
-551 49 -747 -116 -180 -348 -277 -554 -234 -131 28 -249 107 -321 216 -207
313 -120 796 172 952 32 17 76 35 97 40 62 14 185 12 249 -4z m4500 -243 l7
-160 -38 -12 c-22 -6 -66 -14 -100 -17 -54 -5 -63 -3 -89 20 l-29 25 -1 162
c0 196 2 200 83 201 31 0 77 6 102 12 l45 12 6 -41 c4 -23 10 -113 14 -202z
m-1682 134 c75 -50 119 -262 86 -415 l-11 -51 -66 -19 c-37 -10 -110 -27 -163
-36 -108 -20 -157 -12 -185 30 -19 30 -52 200 -60 317 -12 171 27 199 271 194
79 -1 106 -6 128 -20z"/>
<path d="M15195 10980 c3 -5 8 -10 11 -10 2 0 4 5 4 10 0 6 -5 10 -11 10 -5 0
-7 -4 -4 -10z"/>
<path d="M2963 5686 c-18 -8 -33 -20 -33 -26 0 -13 1 -13 46 6 21 9 56 14 80
12 24 -2 39 1 34 6 -15 15 -94 17 -127 2z"/>
<path d="M3030 5662 c0 -9 62 -34 68 -27 3 2 -1 11 -8 20 -13 15 -60 21 -60 7z"/>
<path d="M2945 5598 c-29 -27 -37 -44 -44 -88 -9 -56 -1 -133 18 -169 17 -32
71 -71 97 -71 31 0 80 24 94 47 9 16 10 15 5 -4 -4 -13 -2 -23 4 -23 13 0 31
33 31 56 0 14 -2 15 -17 3 -14 -12 -16 -12 -8 1 5 8 12 51 16 95 4 44 10 89
13 100 4 12 1 28 -8 40 -18 25 -31 14 -16 -15 6 -11 9 -26 7 -33 -3 -7 -9 0
-15 15 -15 37 -73 78 -111 78 -21 0 -42 -10 -66 -32z m116 -15 c33 -20 44 -57
41 -140 -2 -92 -48 -150 -103 -131 -37 13 -59 54 -66 123 -7 64 10 118 44 145
31 24 46 25 84 3z"/>
<path d="M2896 5252 c-6 -10 38 -54 69 -70 30 -15 99 -22 115 -12 11 7 7 10
-15 10 -38 1 -104 31 -129 59 -20 22 -32 26 -40 13z"/>
<path d="M3080 5250 c-8 -5 -27 -10 -42 -10 -35 0 -36 -16 -3 -24 28 -7 80 13
78 29 -2 14 -16 16 -33 5z"/>
<path d="M4214 5611 c-47 -28 -102 -99 -120 -153 -25 -76 -16 -180 21 -254 17
-32 38 -60 48 -62 21 -4 23 25 3 47 -28 31 -55 133 -51 191 6 72 54 169 107
215 45 38 41 46 -8 16z"/>
<path d="M4271 5601 c-8 -5 -11 -16 -8 -25 6 -15 9 -15 37 -1 16 8 30 20 30
25 0 12 -40 13 -59 1z"/>
<path d="M4201 5494 c-26 -33 -28 -64 -3 -64 16 0 43 48 43 77 1 18 -21 12
-40 -13z"/>
<path d="M4324 5510 c-27 -11 -72 -65 -80 -96 -13 -52 2 -123 31 -154 53 -56
82 -30 34 29 -59 75 -45 163 33 211 33 20 22 26 -18 10z"/>
<path d="M4176 5368 c-24 -33 -21 -78 4 -78 16 0 20 7 20 34 0 19 3 41 6 50 9
24 -13 19 -30 -6z"/>
<path d="M4194 5214 c9 -48 30 -74 48 -56 9 9 7 20 -9 49 -30 53 -48 56 -39 7z"/>
<path d="M7911 5425 c-83 -75 -117 -205 -92 -350 14 -81 37 -129 83 -171 53
-50 79 -52 31 -2 -57 58 -75 106 -81 214 -6 120 11 179 77 261 41 50 47 64 36
73 -11 9 -22 3 -54 -25z"/>
<path d="M7828 5433 c-16 -19 -38 -58 -38 -67 0 -3 8 -6 18 -6 10 0 25 17 39
45 23 47 12 63 -19 28z"/>
<path d="M7737 5255 c-23 -48 -22 -75 2 -75 20 0 31 26 31 78 0 42 -12 41 -33
-3z"/>
<path d="M7714 5117 c-2 -7 -6 -33 -7 -58 -2 -34 2 -44 16 -47 14 -3 17 4 17
52 0 53 -14 83 -26 53z"/>
<path d="M7745 4950 c-12 -19 38 -105 60 -105 31 0 29 26 -6 73 -32 43 -43 50
-54 32z"/>
<path d="M7840 4806 c0 -7 18 -30 41 -50 32 -30 43 -35 55 -25 23 19 16 35
-26 63 -44 29 -70 33 -70 12z"/>
<path d="M9313 5428 c-68 -110 -113 -270 -113 -407 0 -174 46 -297 150 -404
69 -70 93 -71 31 -1 -59 67 -99 155 -122 270 -38 183 -11 345 86 504 20 33 34
64 30 70 -13 21 -36 9 -62 -32z"/>
<path d="M9467 5419 c-38 -31 -48 -59 -22 -59 14 0 95 71 95 84 0 16 -39 3
-73 -25z"/>
<path d="M9535 5328 c-59 -52 -89 -99 -111 -173 -23 -80 -16 -211 16 -283 27
-63 101 -133 158 -150 48 -15 122 -16 122 -2 0 6 -14 10 -30 10 -44 0 -115 37
-151 78 -18 20 -44 61 -58 92 -22 47 -26 69 -26 150 0 78 4 102 22 135 24 45
84 108 126 133 15 9 27 24 27 34 0 32 -44 21 -95 -24z"/>
<path d="M9356 5233 c-28 -49 -28 -77 0 -71 15 3 25 23 48 96 14 42 -21 24
-48 -25z"/>
<path d="M9312 5083 c-20 -55 -22 -66 -17 -84 4 -11 15 -19 26 -19 14 0 19 7
19 28 0 15 3 44 6 65 5 29 3 37 -8 37 -9 0 -20 -12 -26 -27z"/>
<path d="M9324 4906 c-7 -30 6 -88 21 -93 6 -1 16 1 24 6 13 8 12 16 -4 53
-26 59 -33 65 -41 34z"/>
<path d="M9380 4749 c0 -19 64 -89 82 -89 35 0 30 23 -13 61 -44 38 -69 49
-69 28z"/>
<path d="M9522 4630 c6 -18 95 -63 108 -55 18 11 11 35 -14 45 -48 18 -99 24
-94 10z"/>
<path d="M12930 5191 c-99 -32 -178 -103 -220 -195 -62 -136 -66 -288 -11
-400 34 -70 84 -117 104 -97 8 8 3 19 -21 43 -76 79 -100 214 -63 357 34 136
81 198 186 247 68 32 150 32 252 -1 91 -29 120 -47 125 -78 2 -12 6 -17 10
-11 15 23 -31 72 -97 105 -58 28 -80 33 -154 36 -47 1 -97 -1 -111 -6z"/>
<path d="M12905 5105 c-46 -17 -71 -43 -54 -59 7 -8 27 -2 67 21 78 43 70 68
-13 38z"/>
<path d="M13056 5101 c-16 -26 23 -47 105 -57 41 -5 49 -3 49 10 0 31 -139 72
-154 47z"/>
<path d="M13045 5045 c-5 -2 -27 -6 -48 -10 -46 -7 -109 -62 -140 -119 -31
-59 -31 -193 0 -252 43 -80 106 -114 213 -114 48 0 61 5 105 38 83 62 119 163
96 267 -17 74 -62 139 -114 163 -43 20 -94 32 -112 27z m108 -72 c25 -17 52
-50 70 -83 25 -48 28 -63 24 -113 -6 -67 -36 -120 -93 -164 -32 -24 -46 -28
-95 -27 -122 3 -192 82 -191 214 2 165 160 261 285 173z"/>
<path d="M12791 4993 c-37 -45 -41 -76 -9 -71 16 2 27 16 40 50 22 60 8 69
-31 21z"/>
<path d="M13263 4984 c-3 -8 3 -25 15 -37 11 -12 23 -32 27 -44 7 -26 23 -30
31 -8 9 22 -15 84 -36 95 -25 13 -30 13 -37 -6z"/>
<path d="M12740 4843 c-17 -55 -10 -98 15 -98 18 0 20 7 20 64 0 75 -18 92
-35 34z"/>
<path d="M13379 4823 c-3 -141 -26 -235 -72 -295 -36 -47 -111 -93 -167 -103
-106 -18 -140 -27 -134 -37 8 -12 109 -3 180 17 101 29 179 112 205 218 17 71
18 209 2 214 -7 3 -13 -3 -14 -14z"/>
<path d="M13309 4763 c-11 -117 32 -124 47 -8 6 43 6 45 -19 45 -22 0 -25 -5
-28 -37z"/>
<path d="M12767 4693 c-9 -15 28 -108 44 -111 27 -5 29 23 5 69 -24 43 -40 57
-49 42z"/>
<path d="M13222 4561 c-18 -22 -32 -42 -32 -45 0 -3 13 -6 29 -6 50 0 95 79
50 88 -8 1 -29 -15 -47 -37z"/>
<path d="M12850 4547 c0 -22 77 -90 94 -84 29 11 17 37 -31 67 -52 33 -63 36
-63 17z"/>
<path d="M13031 4489 c-24 -4 -46 -11 -49 -14 -21 -21 85 -49 126 -34 17 6 22
15 20 32 -4 26 -29 30 -97 16z"/>
<path d="M15710 14214 c-77 -10 -189 -38 -259 -66 -320 -126 -532 -392 -576
-719 l-6 -45 -61 30 c-58 29 -70 31 -168 31 -96 0 -110 -3 -165 -29 -77 -38
-144 -106 -175 -178 -18 -43 -29 -56 -40 -52 -31 13 -117 16 -157 5 -57 -15
-121 -66 -157 -124 -23 -38 -29 -59 -30 -110 -1 -47 2 -61 13 -59 18 4 587 20
1131 32 245 5 974 15 1620 21 646 6 1179 15 1184 20 12 11 -46 131 -92 192
-21 27 -67 68 -103 93 -155 106 -342 119 -509 36 -41 -20 -78 -38 -82 -40 -5
-2 -8 2 -8 9 0 26 -112 233 -178 331 -226 330 -508 531 -847 603 -72 15 -272
27 -335 19z m372 -78 c382 -100 685 -369 897 -794 59 -118 63 -123 89 -119 16
3 46 14 68 25 79 40 151 54 253 50 109 -4 176 -29 268 -98 42 -32 114 -118
146 -175 4 -7 -249 -9 -786 -7 -795 4 -1336 -5 -1952 -33 -306 -15 -884 -48
-1047 -62 l-78 -6 0 34 c1 80 80 177 162 200 51 13 131 7 173 -15 34 -18 52
-7 35 21 -27 42 71 168 168 217 123 62 276 46 390 -40 24 -19 37 -23 44 -16 8
8 8 16 -1 26 -15 18 0 124 31 221 69 212 250 413 460 509 87 40 190 73 273 86
104 16 298 4 407 -24z"/>
</g>
</svg>
